<svg xmlns="http://www.w3.org/2000/svg" xmlns:xlink="http://www.w3.org/1999/xlink" width="500" zoomAndPan="magnify" viewBox="0 0 375 374.999991" height="500" preserveAspectRatio="xMidYMid meet" version="1.0"><defs><g/><clipPath id="3e3bb30f19"><path d="M 108.28125 64.695312 L 266.53125 64.695312 L 266.53125 222.945312 L 108.28125 222.945312 Z M 108.28125 64.695312 " clip-rule="nonzero"/></clipPath></defs><g clip-path="url(#3e3bb30f19)"><path fill="#38b6ff" d="M 187.40625 64.695312 C 143.707031 64.695312 108.28125 100.121094 108.28125 143.820312 C 108.28125 187.519531 143.707031 222.945312 187.40625 222.945312 C 231.105469 222.945312 266.53125 187.519531 266.53125 143.820312 C 266.53125 100.121094 231.105469 64.695312 187.40625 64.695312 " fill-opacity="1" fill-rule="nonzero"/></g><g fill="#274352" fill-opacity="1"><g transform="translate(114.911009, 146.037702)"><g><path d="M 41.140625 -55.9375 L 42.484375 -56.1875 C 44.722656 -56.882812 46.226562 -56.632812 47 -55.4375 C 47.570312 -54.90625 47.992188 -54.109375 48.265625 -53.046875 L 48.5 -52.296875 C 48.769531 -51.242188 48.664062 -46.679688 48.1875 -38.609375 C 47.695312 -34.898438 47.15625 -27.175781 46.5625 -15.4375 C 46.4375 -10.769531 44.679688 -7.3125 41.296875 -5.0625 C 37.921875 -2.8125 35.890625 -3.644531 35.203125 -7.5625 C 35.617188 -13.164062 35.898438 -21.644531 36.046875 -33 C 36.296875 -33.039062 36.253906 -33.707031 35.921875 -35 C 34.117188 -30.957031 32.640625 -27.332031 31.484375 -24.125 C 28.410156 -17.050781 26.179688 -12.835938 24.796875 -11.484375 C 24.722656 -11.472656 24.347656 -11.34375 23.671875 -11.09375 C 22.253906 -11.164062 20.972656 -11.890625 19.828125 -13.265625 C 18.816406 -14.929688 18.101562 -16.523438 17.6875 -18.046875 C 17.0625 -22.003906 15.394531 -30.097656 12.6875 -42.328125 C 12.21875 -41.878906 11.628906 -40.191406 10.921875 -37.265625 C 10.015625 -32.535156 9 -21.1875 7.875 -3.21875 C 4.707031 -0.113281 1.617188 0.046875 -1.390625 -2.734375 C -2.597656 -7.929688 -2.503906 -16.101562 -1.109375 -27.25 C 0.347656 -35.914062 1.851562 -41.796875 3.40625 -44.890625 C 3.96875 -45.796875 5.648438 -46.789062 8.453125 -47.875 C 10.472656 -48.613281 12.085938 -48.601562 13.296875 -47.84375 C 14.515625 -47.09375 15.566406 -45.457031 16.453125 -42.9375 L 17.3125 -39.71875 C 18.03125 -37 19.285156 -29.722656 21.078125 -17.890625 C 21.398438 -17.410156 21.671875 -17.191406 21.890625 -17.234375 C 22.597656 -17.148438 24.375 -20.894531 27.21875 -28.46875 C 29.71875 -35 33.203125 -42.421875 37.671875 -50.734375 C 39.742188 -53.773438 40.898438 -55.507812 41.140625 -55.9375 Z M 41.140625 -55.9375 "/></g></g></g><g fill="#274352" fill-opacity="1"><g transform="translate(170.121413, 136.000067)"><g><path d="M 2.8125 -29.625 C 3.15625 -29.875 3.695312 -29.859375 4.4375 -29.578125 C 5.175781 -29.304688 5.570312 -29.007812 5.625 -28.6875 L 5.796875 -27.796875 C 6.210938 -25.503906 5.378906 -24.171875 3.296875 -23.796875 L 2.734375 -23.6875 C 2.429688 -23.632812 2.085938 -23.875 1.703125 -24.40625 L 1.390625 -26.109375 C 1.992188 -28.203125 2.46875 -29.375 2.8125 -29.625 Z M 1.234375 -22.265625 C 3.378906 -22.191406 4.582031 -21.429688 4.84375 -19.984375 L 5 -19.140625 C 3.03125 -13.734375 2.207031 -10.140625 2.53125 -8.359375 C 3.070312 -7.859375 3.554688 -7.644531 3.984375 -7.71875 C 4.410156 -7.800781 5.078125 -8.171875 5.984375 -8.828125 C 6.898438 -9.484375 8.726562 -11.679688 11.46875 -15.421875 C 11.863281 -15.429688 12.09375 -15.265625 12.15625 -14.921875 C 12.25 -14.378906 11.332031 -12.953125 9.40625 -10.640625 C 7.488281 -8.328125 5.71875 -6.960938 4.09375 -6.546875 C 1.914062 -6.148438 0.1875 -7.503906 -1.09375 -10.609375 L -1.203125 -11.203125 C -1.429688 -12.492188 -0.835938 -15.75 0.578125 -20.96875 C 0.523438 -21.75 0.742188 -22.179688 1.234375 -22.265625 Z M 1.234375 -22.265625 "/></g></g></g><g fill="#274352" fill-opacity="1"><g transform="translate(185.817404, 133.146427)"><g><path d="M 6.640625 -29.3125 L 11.515625 -30.203125 C 13.421875 -29.617188 14.410156 -29.128906 14.484375 -28.734375 C 14.046875 -27.796875 12.128906 -26.71875 8.734375 -25.5 C 5.347656 -24.289062 3.796875 -21.039062 4.078125 -15.75 L 4.25 -14.765625 C 4.414062 -13.878906 4.882812 -13.0625 5.65625 -12.3125 C 6.425781 -11.5625 7.601562 -11.328125 9.1875 -11.609375 L 9.515625 -11.671875 C 11.460938 -12.066406 14.945312 -14.351562 19.96875 -18.53125 L 20.390625 -17.90625 L 20.5 -17.265625 C 16.4375 -12.109375 12.523438 -9.1875 8.765625 -8.5 C 2.285156 -8.300781 -1.363281 -10.445312 -2.1875 -14.9375 C -1.9375 -19.707031 -0.675781 -23.296875 1.59375 -25.703125 C 3.78125 -27.890625 5.460938 -29.09375 6.640625 -29.3125 Z M 6.640625 -29.3125 "/></g></g></g><g fill="#274352" fill-opacity="1"><g transform="translate(210.585556, 128.643405)"><g><path d="M -0.5 -28.96875 C 2.375 -28.21875 3.988281 -26.867188 4.34375 -24.921875 L 4.78125 -22.546875 C 6.914062 -25.859375 10.082031 -27.898438 14.28125 -28.671875 C 17.09375 -29.179688 19.773438 -28.472656 22.328125 -26.546875 C 22.835938 -25.710938 22.578125 -25.207031 21.546875 -25.03125 C 21.398438 -25 20.847656 -24.992188 19.890625 -25.015625 C 13.015625 -25.585938 8.625 -21.421875 6.71875 -12.515625 C 6.019531 -5.867188 5.5625 -1.128906 5.34375 1.703125 L 4.828125 2.078125 L 4.328125 2.171875 C -0.0351562 1.929688 -2.21875 -1.0625 -2.21875 -6.8125 C -0.726562 -12.707031 0.144531 -17.863281 0.40625 -22.28125 C 0.757812 -22.875 0.910156 -24.085938 0.859375 -25.921875 C -0.304688 -26.890625 -1.707031 -27.046875 -3.34375 -26.390625 C -4.988281 -25.742188 -5.800781 -25.804688 -5.78125 -26.578125 C -5.757812 -27.359375 -5.039062 -27.878906 -3.625 -28.140625 C -2.414062 -28.523438 -1.375 -28.800781 -0.5 -28.96875 Z M -0.5 -28.96875 "/></g></g></g><g fill="#274352" fill-opacity="1"><g transform="translate(239.961803, 123.302599)"><g><path d="M 10.84375 -29.75 C 12.445312 -30.5625 13.316406 -30.878906 13.453125 -30.703125 C 13.585938 -30.535156 13.703125 -30.175781 13.796875 -29.625 C 13.898438 -29.070312 12.65625 -28.164062 10.0625 -26.90625 C 11.75 -24.445312 12.664062 -22.816406 12.8125 -22.015625 C 12.957031 -21.222656 13.046875 -20.734375 13.078125 -20.546875 C 13.109375 -20.367188 12.984375 -19.046875 12.703125 -16.578125 C 12.421875 -14.117188 11.628906 -12.242188 10.328125 -10.953125 C 9.035156 -9.671875 7.820312 -8.796875 6.6875 -8.328125 C 5.550781 -7.867188 4.820312 -7.609375 4.5 -7.546875 C 4.175781 -7.484375 3.539062 -7.367188 2.59375 -7.203125 C 1.65625 -7.035156 0.738281 -7.398438 -0.15625 -8.296875 C -1.0625 -9.191406 -1.726562 -10.367188 -2.15625 -11.828125 C -2.582031 -13.285156 -2.75 -15.394531 -2.65625 -18.15625 C -2.570312 -20.925781 -1.988281 -23.09375 -0.90625 -24.65625 C 0.164062 -26.226562 0.734375 -27.019531 0.796875 -27.03125 C 0.859375 -27.039062 1.335938 -27.21875 2.234375 -27.5625 C 3.140625 -27.90625 4.398438 -28.148438 6.015625 -28.296875 C 7.640625 -28.453125 9.25 -28.9375 10.84375 -29.75 Z M 3 -15.078125 C 3.3125 -13.390625 3.503906 -12.328125 3.578125 -11.890625 C 3.660156 -11.460938 4.039062 -11.191406 4.71875 -11.078125 C 5.394531 -10.960938 6.109375 -11.253906 6.859375 -11.953125 C 7.609375 -12.648438 8.128906 -13.71875 8.421875 -15.15625 C 8.710938 -16.601562 8.765625 -17.847656 8.578125 -18.890625 C 8.390625 -19.929688 8.285156 -20.492188 8.265625 -20.578125 C 8.253906 -20.660156 8.082031 -21.410156 7.75 -22.828125 C 7.425781 -24.253906 6.890625 -25.09375 6.140625 -25.34375 L 5.515625 -25.234375 C 4.242188 -25.003906 3.46875 -24.335938 3.1875 -23.234375 C 2.90625 -22.140625 2.726562 -20.929688 2.65625 -19.609375 C 2.582031 -18.285156 2.695312 -16.773438 3 -15.078125 Z M 3 -15.078125 "/></g></g></g><g fill="#274352" fill-opacity="1"><g transform="translate(122.980181, 207.980876)"><g><path d="M 15.546875 -52.609375 C 17.847656 -53.023438 19.640625 -52.535156 20.921875 -51.140625 C 20.597656 -50.890625 20.328125 -50.742188 20.109375 -50.703125 C 19.515625 -50.597656 18.691406 -50.660156 17.640625 -50.890625 C 15.484375 -50.492188 13.222656 -48.5625 10.859375 -45.09375 C 8.816406 -41.050781 6.835938 -33.035156 4.921875 -21.046875 C 4.941406 -20.921875 4.863281 -20.289062 4.6875 -19.15625 C 7.59375 -19.132812 9.972656 -19.566406 11.828125 -20.453125 L 12.578125 -21.234375 L 12.984375 -20.671875 L 13.40625 -18.375 C 13.476562 -17.96875 13.3125 -17.722656 12.90625 -17.640625 C 10.90625 -16.703125 8.144531 -16.203125 4.625 -16.140625 C 3.71875 -1.617188 3.84375 9.046875 5 15.859375 C 5.082031 19.210938 4.738281 21.191406 3.96875 21.796875 L 2.5 22.0625 C 2.070312 22.144531 1.523438 21.332031 0.859375 19.625 C -0.109375 16.363281 -1.003906 11.910156 -1.828125 6.265625 C -2.660156 0.617188 -2.707031 -7.265625 -1.96875 -17.390625 L -6.40625 -18.78125 C -7.738281 -20.507812 -6.515625 -20.898438 -2.734375 -19.953125 L -1.703125 -19.53125 C 0.304688 -39.851562 6.054688 -50.878906 15.546875 -52.609375 Z M 15.546875 -52.609375 "/></g></g></g><g fill="#274352" fill-opacity="1"><g transform="translate(140.087377, 204.870669)"><g><path d="M 10.84375 -29.75 C 12.445312 -30.5625 13.316406 -30.878906 13.453125 -30.703125 C 13.585938 -30.535156 13.703125 -30.175781 13.796875 -29.625 C 13.898438 -29.070312 12.65625 -28.164062 10.0625 -26.90625 C 11.75 -24.445312 12.664062 -22.816406 12.8125 -22.015625 C 12.957031 -21.222656 13.046875 -20.734375 13.078125 -20.546875 C 13.109375 -20.367188 12.984375 -19.046875 12.703125 -16.578125 C 12.421875 -14.117188 11.628906 -12.242188 10.328125 -10.953125 C 9.035156 -9.671875 7.820312 -8.796875 6.6875 -8.328125 C 5.550781 -7.867188 4.820312 -7.609375 4.5 -7.546875 C 4.175781 -7.484375 3.539062 -7.367188 2.59375 -7.203125 C 1.65625 -7.035156 0.738281 -7.398438 -0.15625 -8.296875 C -1.0625 -9.191406 -1.726562 -10.367188 -2.15625 -11.828125 C -2.582031 -13.285156 -2.75 -15.394531 -2.65625 -18.15625 C -2.570312 -20.925781 -1.988281 -23.09375 -0.90625 -24.65625 C 0.164062 -26.226562 0.734375 -27.019531 0.796875 -27.03125 C 0.859375 -27.039062 1.335938 -27.21875 2.234375 -27.5625 C 3.140625 -27.90625 4.398438 -28.148438 6.015625 -28.296875 C 7.640625 -28.453125 9.25 -28.9375 10.84375 -29.75 Z M 3 -15.078125 C 3.3125 -13.390625 3.503906 -12.328125 3.578125 -11.890625 C 3.660156 -11.460938 4.039062 -11.191406 4.71875 -11.078125 C 5.394531 -10.960938 6.109375 -11.253906 6.859375 -11.953125 C 7.609375 -12.648438 8.128906 -13.71875 8.421875 -15.15625 C 8.710938 -16.601562 8.765625 -17.847656 8.578125 -18.890625 C 8.390625 -19.929688 8.285156 -20.492188 8.265625 -20.578125 C 8.253906 -20.660156 8.082031 -21.410156 7.75 -22.828125 C 7.425781 -24.253906 6.890625 -25.09375 6.140625 -25.34375 L 5.515625 -25.234375 C 4.242188 -25.003906 3.46875 -24.335938 3.1875 -23.234375 C 2.90625 -22.140625 2.726562 -20.929688 2.65625 -19.609375 C 2.582031 -18.285156 2.695312 -16.773438 3 -15.078125 Z M 3 -15.078125 "/></g></g></g><g fill="#274352" fill-opacity="1"><g transform="translate(160.305037, 201.194958)"><g><path d="M 10.84375 -29.75 C 12.445312 -30.5625 13.316406 -30.878906 13.453125 -30.703125 C 13.585938 -30.535156 13.703125 -30.175781 13.796875 -29.625 C 13.898438 -29.070312 12.65625 -28.164062 10.0625 -26.90625 C 11.75 -24.445312 12.664062 -22.816406 12.8125 -22.015625 C 12.957031 -21.222656 13.046875 -20.734375 13.078125 -20.546875 C 13.109375 -20.367188 12.984375 -19.046875 12.703125 -16.578125 C 12.421875 -14.117188 11.628906 -12.242188 10.328125 -10.953125 C 9.035156 -9.671875 7.820312 -8.796875 6.6875 -8.328125 C 5.550781 -7.867188 4.820312 -7.609375 4.5 -7.546875 C 4.175781 -7.484375 3.539062 -7.367188 2.59375 -7.203125 C 1.65625 -7.035156 0.738281 -7.398438 -0.15625 -8.296875 C -1.0625 -9.191406 -1.726562 -10.367188 -2.15625 -11.828125 C -2.582031 -13.285156 -2.75 -15.394531 -2.65625 -18.15625 C -2.570312 -20.925781 -1.988281 -23.09375 -0.90625 -24.65625 C 0.164062 -26.226562 0.734375 -27.019531 0.796875 -27.03125 C 0.859375 -27.039062 1.335938 -27.21875 2.234375 -27.5625 C 3.140625 -27.90625 4.398438 -28.148438 6.015625 -28.296875 C 7.640625 -28.453125 9.25 -28.9375 10.84375 -29.75 Z M 3 -15.078125 C 3.3125 -13.390625 3.503906 -12.328125 3.578125 -11.890625 C 3.660156 -11.460938 4.039062 -11.191406 4.71875 -11.078125 C 5.394531 -10.960938 6.109375 -11.253906 6.859375 -11.953125 C 7.609375 -12.648438 8.128906 -13.71875 8.421875 -15.15625 C 8.710938 -16.601562 8.765625 -17.847656 8.578125 -18.890625 C 8.390625 -19.929688 8.285156 -20.492188 8.265625 -20.578125 C 8.253906 -20.660156 8.082031 -21.410156 7.75 -22.828125 C 7.425781 -24.253906 6.890625 -25.09375 6.140625 -25.34375 L 5.515625 -25.234375 C 4.242188 -25.003906 3.46875 -24.335938 3.1875 -23.234375 C 2.90625 -22.140625 2.726562 -20.929688 2.65625 -19.609375 C 2.582031 -18.285156 2.695312 -16.773438 3 -15.078125 Z M 3 -15.078125 "/></g></g></g><g fill="#274352" fill-opacity="1"><g transform="translate(180.522698, 197.519247)"><g><path d="M 2.28125 -46.765625 C 6.53125 -46.222656 8.726562 -45.546875 8.875 -44.734375 C 9.289062 -44.804688 9.941406 -43.664062 10.828125 -41.3125 C 10.867188 -41.0625 10.769531 -39.566406 10.53125 -36.828125 C 10.300781 -34.085938 9.664062 -29.632812 8.625 -23.46875 C 7.59375 -17.300781 6.472656 -11.25 5.265625 -5.3125 C 4.753906 -3.226562 4.6875 -0.90625 5.0625 1.65625 C 5.613281 2.695312 6.523438 3.101562 7.796875 2.875 L 8.5 2.75 C 9.269531 2.601562 10.082031 2.257812 10.9375 1.71875 L 10.96875 1.90625 C 11.320312 3.28125 10.679688 4.195312 9.046875 4.65625 C 7.410156 5.125 5.734375 4.957031 4.015625 4.15625 C 2.304688 3.363281 1.265625 1.925781 0.890625 -0.15625 C 0.00390625 -2.289062 -0.515625 -4.617188 -0.671875 -7.140625 C -0.828125 -9.660156 0.175781 -19.976562 2.34375 -38.09375 C 2.644531 -39.8125 2.78125 -41.851562 2.75 -44.21875 C 2.382812 -44.707031 2.109375 -45.46875 1.921875 -46.5 Z M 2.28125 -46.765625 "/></g></g></g><g fill="#274352" fill-opacity="1"><g transform="translate(195.29707, 194.833163)"><g><path d="M 2.8125 -29.625 C 3.15625 -29.875 3.695312 -29.859375 4.4375 -29.578125 C 5.175781 -29.304688 5.570312 -29.007812 5.625 -28.6875 L 5.796875 -27.796875 C 6.210938 -25.503906 5.378906 -24.171875 3.296875 -23.796875 L 2.734375 -23.6875 C 2.429688 -23.632812 2.085938 -23.875 1.703125 -24.40625 L 1.390625 -26.109375 C 1.992188 -28.203125 2.46875 -29.375 2.8125 -29.625 Z M 1.234375 -22.265625 C 3.378906 -22.191406 4.582031 -21.429688 4.84375 -19.984375 L 5 -19.140625 C 3.03125 -13.734375 2.207031 -10.140625 2.53125 -8.359375 C 3.070312 -7.859375 3.554688 -7.644531 3.984375 -7.71875 C 4.410156 -7.800781 5.078125 -8.171875 5.984375 -8.828125 C 6.898438 -9.484375 8.726562 -11.679688 11.46875 -15.421875 C 11.863281 -15.429688 12.09375 -15.265625 12.15625 -14.921875 C 12.25 -14.378906 11.332031 -12.953125 9.40625 -10.640625 C 7.488281 -8.328125 5.71875 -6.960938 4.09375 -6.546875 C 1.914062 -6.148438 0.1875 -7.503906 -1.09375 -10.609375 L -1.203125 -11.203125 C -1.429688 -12.492188 -0.835938 -15.75 0.578125 -20.96875 C 0.523438 -21.75 0.742188 -22.179688 1.234375 -22.265625 Z M 1.234375 -22.265625 "/></g></g></g><g fill="#274352" fill-opacity="1"><g transform="translate(210.993062, 191.979523)"><g><path d="M 25.109375 -32.53125 L 25.1875 -32.3125 C 25.8125 -31.175781 24.914062 -30.003906 22.5 -28.796875 L 22 -28.71875 C 18.945312 -28.769531 16.359375 -28.640625 14.234375 -28.328125 C 12.109375 -28.015625 10.648438 -27.226562 9.859375 -25.96875 C 9.078125 -24.71875 11.117188 -23.082031 15.984375 -21.0625 C 20.847656 -19.050781 23.597656 -16.109375 24.234375 -12.234375 C 24.878906 -8.359375 23.046875 -5.453125 18.734375 -3.515625 C 14.421875 -1.578125 10.265625 -1.378906 6.265625 -2.921875 C 2.273438 -4.460938 -0.09375 -6.566406 -0.84375 -9.234375 C -1.601562 -11.910156 -1.023438 -12.5 0.890625 -11 C 2.816406 -9.5 5.609375 -8.550781 9.265625 -8.15625 C 12.929688 -7.769531 15.304688 -8.238281 16.390625 -9.5625 C 17.472656 -10.882812 17.09375 -12.160156 15.25 -13.390625 C 13.40625 -14.617188 10.601562 -16.132812 6.84375 -17.9375 C 3.09375 -19.738281 1.101562 -22.242188 0.875 -25.453125 C 0.65625 -28.671875 2.5 -30.726562 6.40625 -31.625 C 12.382812 -33.289062 17.207031 -34.019531 20.875 -33.8125 C 23.332031 -33.257812 24.742188 -32.832031 25.109375 -32.53125 Z M 25.109375 -32.53125 "/></g></g></g><g fill="#274352" fill-opacity="1"><g transform="translate(240.023708, 186.70155)"><g><path d="M 0.703125 -46.125 C 3.960938 -47.800781 5.796875 -47.503906 6.203125 -45.234375 L 6.296875 -44.78125 C 6.460938 -38.445312 6.222656 -31.070312 5.578125 -22.65625 L 5.8125 -22.703125 C 8.988281 -28.210938 12.164062 -31.085938 15.34375 -31.328125 C 18.519531 -31.578125 20.894531 -29.78125 22.46875 -25.9375 C 23.132812 -24.695312 23.609375 -23.679688 23.890625 -22.890625 C 23.921875 -22.734375 23.867188 -22.644531 23.734375 -22.625 L 24.40625 -20.09375 C 24.582031 -19.082031 24.90625 -15.691406 25.375 -9.921875 L 25.578125 -9.96875 C 25.890625 -8.632812 27.25 -8.722656 29.65625 -10.234375 C 32.070312 -11.742188 32.425781 -11.269531 30.71875 -8.8125 C 29.007812 -6.351562 27.257812 -4.957031 25.46875 -4.625 C 23.6875 -4.300781 21.957031 -4.867188 20.28125 -6.328125 C 18.21875 -8.722656 16.96875 -11.148438 16.53125 -13.609375 C 16.269531 -14.992188 15.925781 -19.269531 15.5 -26.4375 L 15.421875 -26.875 C 13.429688 -25.757812 11.414062 -24.101562 9.375 -21.90625 C 7.332031 -19.71875 5.878906 -16.445312 5.015625 -12.09375 C 4.148438 -7.738281 3.34375 -5.125 2.59375 -4.25 L 1.71875 -4.09375 C -0.96875 -3.238281 -2.265625 -5.519531 -2.171875 -10.9375 C -1.523438 -20.101562 -0.972656 -27.882812 -0.515625 -34.28125 C -0.0664062 -40.6875 0.335938 -44.632812 0.703125 -46.125 Z M 0.703125 -46.125 "/></g></g></g><g fill="#274352" fill-opacity="1"><g transform="translate(112.799015, 272.234781)"><g><path d="M 0.519531 -6.761719 C 0.519531 -6.460938 0.660156 -6.140625 0.980469 -6.140625 L 7.140625 -6.140625 C 7.441406 -6.140625 7.578125 -6.460938 7.578125 -6.761719 C 7.578125 -7.058594 7.441406 -7.359375 7.140625 -7.359375 L 0.980469 -7.359375 C 0.679688 -7.359375 0.519531 -7.058594 0.519531 -6.761719 Z M 0.519531 -6.761719 "/></g></g></g><g fill="#274352" fill-opacity="1"><g transform="translate(126.914635, 272.234781)"><g/></g></g><g fill="#274352" fill-opacity="1"><g transform="translate(138.511627, 272.234781)"><g><path d="M 17.460938 -13.019531 C 17.160156 -13.019531 16.917969 -12.839844 16.820312 -12.578125 L 14.238281 -12.578125 C 14.441406 -13.679688 14.601562 -14.800781 14.71875 -15.941406 C 14.78125 -16.359375 13.761719 -16.417969 13.699219 -16 C 13.398438 -13.21875 12.820312 -10.28125 12.078125 -7.800781 C 11.980469 -7.398438 12.78125 -7.078125 12.941406 -7.5 L 13.078125 -7.898438 C 13.339844 -6.21875 13.679688 -4.839844 14.140625 -3.5 C 13.5 -1.980469 12.699219 -0.519531 11.679688 1.238281 C 11.417969 1.558594 12.121094 2.160156 12.441406 1.898438 C 13.339844 0.398438 14.039062 -0.839844 14.660156 -2.121094 C 15.199219 -0.898438 15.878906 0.300781 16.757812 1.660156 C 17.019531 2.078125 17.757812 1.421875 17.558594 1.019531 C 16.621094 -0.578125 15.898438 -1.980469 15.28125 -3.578125 C 16.140625 -5.820312 16.71875 -8.238281 17.140625 -11.660156 L 17.460938 -11.660156 C 17.839844 -11.660156 18.140625 -11.960938 18.140625 -12.339844 C 18.140625 -12.71875 17.839844 -13.019531 17.460938 -13.019531 Z M 11.121094 -9.339844 C 11.121094 -8.761719 12.019531 -8.800781 12.019531 -9.339844 L 12.019531 -14.238281 C 12.019531 -14.820312 11.121094 -14.820312 11.121094 -14.238281 L 11.121094 -10.339844 L 9.859375 -10.339844 L 9.859375 -15.800781 C 9.859375 -16.441406 8.878906 -16.441406 8.878906 -15.800781 L 8.878906 -10.339844 L 7.480469 -10.339844 L 7.480469 -14.238281 C 7.480469 -14.820312 6.578125 -14.820312 6.578125 -14.238281 L 6.578125 -9.339844 C 6.578125 -8.800781 7.480469 -8.761719 7.480469 -9.339844 L 7.480469 -9.398438 L 11.121094 -9.398438 Z M 2.199219 -6.417969 C 1.941406 -6.039062 2.699219 -5.339844 2.921875 -5.660156 C 3.398438 -6.359375 3.878906 -7.058594 4.300781 -7.800781 L 4.300781 1.839844 C 4.300781 2.261719 5.320312 2.261719 5.320312 1.839844 L 5.320312 -9.839844 C 5.640625 -10.558594 5.917969 -11.300781 6.179688 -12.058594 C 6.339844 -12.5 5.378906 -12.78125 5.28125 -12.460938 C 4.539062 -10.300781 3.398438 -8.179688 2.199219 -6.417969 Z M 10.640625 -0.378906 C 11.5 -1 12.359375 -1.878906 12.898438 -2.460938 C 13.378906 -3 12.71875 -3.578125 12.398438 -3.199219 L 11.558594 -2.339844 L 11.558594 -4.78125 C 11.558594 -6 11.261719 -6.359375 10.039062 -6.359375 L 8.300781 -6.359375 C 7.320312 -6.359375 7.101562 -6.078125 7.101562 -5.121094 L 7.101562 -2.898438 C 7.101562 -1.480469 6.820312 -0.359375 6 1.101562 C 5.800781 1.460938 6.578125 2.019531 6.839844 1.5 C 7.878906 -0.078125 8.019531 -1.300781 8.019531 -2.441406 L 8.019531 -4.578125 C 8.019531 -5.160156 8.179688 -5.441406 8.761719 -5.441406 L 9.640625 -5.441406 C 10.378906 -5.441406 10.640625 -5.300781 10.640625 -4.578125 L 10.640625 -1.519531 C 10.460938 -1.339844 10.261719 -1.199219 10.058594 -1.058594 C 9.621094 -0.738281 10.058594 -0.0195312 10.640625 -0.378906 Z M 13.71875 -10.21875 C 13.859375 -10.679688 13.960938 -11.179688 14.058594 -11.660156 L 16.160156 -11.660156 C 15.78125 -8.941406 15.339844 -6.917969 14.761719 -5.140625 C 14.300781 -6.640625 13.980469 -8.21875 13.71875 -10.21875 Z M 2.558594 -11.199219 C 2.300781 -10.878906 3.078125 -10.21875 3.300781 -10.558594 C 4.519531 -12.378906 5.378906 -13.960938 6.179688 -15.820312 C 6.339844 -16.199219 5.398438 -16.539062 5.238281 -16.160156 C 4.601562 -14.621094 3.601562 -12.738281 2.558594 -11.199219 Z M 11.300781 -8.5 C 11.019531 -8.5 10.839844 -8.359375 10.738281 -8.101562 L 6.578125 -8.101562 C 6.359375 -8.101562 6.238281 -7.878906 6.261719 -7.640625 C 6.261719 -7.417969 6.359375 -7.21875 6.578125 -7.21875 L 11.300781 -7.21875 C 11.679688 -7.21875 11.917969 -7.539062 11.917969 -7.878906 C 11.917969 -8.21875 11.679688 -8.5 11.300781 -8.5 Z M 11.300781 -8.5 "/></g></g></g><g fill="#274352" fill-opacity="1"><g transform="translate(164.500847, 272.234781)"><g><path d="M 15.339844 -9.578125 C 15.339844 -10.558594 15.039062 -10.839844 14 -10.839844 L 11.621094 -10.839844 C 12.238281 -11.621094 12.839844 -12.441406 13.417969 -13.179688 C 13.761719 -13.660156 13.578125 -14.238281 12.800781 -14.238281 L 7.28125 -14.238281 C 7.519531 -14.761719 7.738281 -15.300781 7.941406 -15.859375 C 8.039062 -16.21875 7.078125 -16.757812 6.859375 -16.121094 C 6 -13.699219 4.519531 -11.21875 2.539062 -9.058594 C 2.28125 -8.800781 3.019531 -7.960938 3.339844 -8.320312 C 3.898438 -8.941406 4.421875 -9.601562 4.898438 -10.238281 C 4.859375 -10.078125 4.839844 -9.859375 4.839844 -9.601562 L 4.839844 -0.839844 C 4.839844 -0.0390625 5.960938 -0.0390625 5.960938 -0.839844 L 5.960938 -1.121094 L 14.21875 -1.121094 L 14.21875 -0.839844 C 14.21875 -0.078125 15.339844 -0.078125 15.339844 -0.839844 Z M 17 0.261719 C 16.660156 0.261719 16.441406 0.421875 16.300781 0.71875 L 2.921875 0.71875 C 2.378906 0.71875 2.378906 1.738281 2.921875 1.738281 L 17 1.738281 C 17.417969 1.738281 17.757812 1.421875 17.757812 1 C 17.757812 0.578125 17.417969 0.261719 17 0.261719 Z M 10.558594 -5.480469 L 14.21875 -5.480469 L 14.21875 -2.121094 L 10.558594 -2.121094 Z M 13.480469 -9.839844 C 14.101562 -9.839844 14.21875 -9.820312 14.21875 -9.199219 L 14.21875 -6.519531 L 10.558594 -6.519531 L 10.558594 -9.839844 Z M 5.960938 -5.480469 L 9.558594 -5.480469 L 9.558594 -2.121094 L 5.960938 -2.121094 Z M 12.058594 -13.199219 C 11.578125 -12.539062 10.917969 -11.699219 10.261719 -10.839844 L 6.199219 -10.839844 C 5.738281 -10.839844 5.417969 -10.78125 5.199219 -10.660156 C 5.820312 -11.480469 6.320312 -12.339844 6.78125 -13.199219 Z M 5.960938 -9.140625 C 5.960938 -9.699219 6.078125 -9.839844 6.699219 -9.839844 L 9.558594 -9.839844 L 9.558594 -6.519531 L 5.960938 -6.519531 Z M 5.960938 -9.140625 "/></g></g></g><g fill="#274352" fill-opacity="1"><g transform="translate(190.490066, 272.234781)"><g><path d="M 7.5 -4.339844 C 7.761719 -3.5 8.738281 -4 8.519531 -4.699219 C 8.140625 -5.898438 7.519531 -7.519531 6.917969 -8.640625 C 6.699219 -9.101562 6.261719 -9.058594 6.039062 -8.800781 L 6.039062 -9.679688 L 8.058594 -9.679688 C 8.480469 -9.679688 8.820312 -10.019531 8.820312 -10.441406 C 8.820312 -10.859375 8.480469 -11.199219 8.058594 -11.199219 C 7.738281 -11.199219 7.460938 -11.019531 7.359375 -10.71875 L 6.039062 -10.71875 L 6.039062 -14.019531 C 6.738281 -14.238281 7.417969 -14.441406 8.199219 -14.738281 C 8.71875 -14.898438 8.359375 -15.898438 7.878906 -15.738281 C 5.960938 -15.101562 4.460938 -14.640625 2.5 -14.261719 C 1.921875 -14.160156 2.21875 -13.121094 2.738281 -13.21875 C 3.519531 -13.378906 4.238281 -13.539062 4.960938 -13.71875 L 4.960938 -10.71875 L 2.558594 -10.71875 C 2.300781 -10.71875 2.160156 -10.5 2.140625 -10.261719 C 2.121094 -9.960938 2.261719 -9.679688 2.558594 -9.679688 L 4.121094 -9.679688 C 3.621094 -6.941406 2.980469 -4.660156 2 -2.261719 C 1.738281 -1.621094 2.699219 -1.320312 2.960938 -1.878906 C 3.941406 -4.21875 4.539062 -6.578125 4.960938 -8.917969 L 4.960938 1.921875 C 4.960938 2.558594 6.039062 2.558594 6.039062 1.921875 L 6.039062 -8.160156 C 6.578125 -7.019531 7.121094 -5.519531 7.5 -4.339844 Z M 14.398438 2 C 14.398438 2.558594 15.519531 2.558594 15.519531 2 L 15.519531 -3.980469 L 17.378906 -4.359375 C 17.757812 -4.359375 18.058594 -4.640625 18.058594 -5.019531 C 18.078125 -5.398438 17.820312 -5.679688 17.441406 -5.699219 C 17.140625 -5.699219 16.839844 -5.539062 16.738281 -5.300781 L 15.519531 -5.039062 L 15.519531 -15.898438 C 15.519531 -16.519531 14.398438 -16.378906 14.398438 -15.898438 L 14.398438 -4.820312 L 8.378906 -3.621094 C 8.140625 -3.558594 8.058594 -3.261719 8.140625 -3.019531 C 8.21875 -2.699219 8.460938 -2.578125 8.679688 -2.640625 L 14.398438 -3.761719 Z M 12.261719 -10.960938 C 12.519531 -10.578125 13.417969 -11.320312 13.101562 -11.738281 C 12.101562 -13.160156 11.621094 -13.738281 10.378906 -14.980469 C 10 -15.417969 9.199219 -14.660156 9.539062 -14.261719 C 10.699219 -13.039062 11.300781 -12.398438 12.261719 -10.960938 Z M 11.738281 -5.878906 C 12.039062 -5.519531 12.820312 -6.28125 12.5 -6.699219 C 11.71875 -7.71875 10.71875 -8.800781 9.78125 -9.578125 C 9.359375 -9.960938 8.660156 -9.21875 9.039062 -8.839844 C 10.019531 -7.878906 10.800781 -7 11.738281 -5.878906 Z M 11.738281 -5.878906 "/></g></g></g><g fill="#274352" fill-opacity="1"><g transform="translate(216.479289, 272.234781)"><g><path d="M 15.519531 -7.820312 C 14.621094 -5.5 13.839844 -3.921875 12.820312 -2.5 C 12.039062 -3.699219 11.519531 -5.101562 10.820312 -7.238281 C 10.621094 -7.859375 9.71875 -7.519531 9.878906 -6.941406 C 10.621094 -4.539062 11.28125 -2.941406 12.140625 -1.640625 C 11.199219 -0.539062 10.121094 0.421875 8.621094 1.621094 C 8.199219 1.941406 8.820312 2.761719 9.300781 2.378906 C 10.738281 1.261719 11.839844 0.320312 12.78125 -0.738281 C 13.660156 0.359375 14.738281 1.238281 16.28125 2.359375 C 16.820312 2.738281 17.320312 1.820312 16.941406 1.5 C 15.359375 0.300781 14.300781 -0.558594 13.480469 -1.578125 C 14.660156 -3.179688 15.640625 -5.019531 16.71875 -7.859375 C 16.898438 -8.320312 16.578125 -8.859375 16.039062 -8.859375 L 13.480469 -8.859375 L 13.480469 -12.019531 L 16.460938 -12.019531 C 16.839844 -12.019531 17.140625 -12.199219 17.140625 -12.660156 C 17.140625 -13.039062 16.839844 -13.339844 16.460938 -13.339844 C 16.199219 -13.339844 16 -13.21875 15.859375 -12.980469 L 13.480469 -12.980469 L 13.480469 -16.019531 C 13.480469 -16.660156 12.441406 -16.660156 12.441406 -16.019531 L 12.441406 -12.980469 L 9.179688 -12.980469 C 8.917969 -12.980469 8.78125 -12.738281 8.78125 -12.480469 C 8.78125 -12.238281 8.917969 -12.019531 9.179688 -12.019531 L 12.441406 -12.019531 L 12.441406 -8.859375 L 9.460938 -8.859375 C 9 -8.859375 8.878906 -7.820312 9.460938 -7.820312 Z M 2.660156 -5.859375 C 2.199219 -5.699219 2.519531 -4.679688 3 -4.839844 C 3.78125 -5.101562 4.460938 -5.359375 5.160156 -5.660156 L 5.160156 0.21875 L 3.699219 0.21875 C 2.980469 0.21875 2.980469 1.300781 3.800781 1.300781 L 5.160156 1.300781 L 5.160156 1.878906 C 5.160156 2.558594 6.28125 2.519531 6.28125 1.878906 L 6.28125 -6.160156 C 6.839844 -6.417969 7.417969 -6.699219 8.039062 -7.019531 C 8.640625 -7.339844 8.058594 -8.179688 7.601562 -7.980469 L 6.28125 -7.300781 L 6.28125 -11.640625 L 7.71875 -11.640625 C 8.101562 -11.640625 8.398438 -11.917969 8.398438 -12.300781 C 8.398438 -12.679688 8.101562 -12.980469 7.71875 -12.980469 C 7.417969 -12.980469 7.21875 -12.859375 7.121094 -12.640625 L 6.28125 -12.640625 L 6.28125 -16.039062 C 6.28125 -16.660156 5.160156 -16.660156 5.160156 -16.039062 L 5.160156 -12.640625 L 3.160156 -12.640625 C 2.898438 -12.640625 2.761719 -12.417969 2.738281 -12.179688 C 2.738281 -11.917969 2.859375 -11.640625 3.160156 -11.640625 L 5.160156 -11.640625 L 5.160156 -6.800781 C 4.378906 -6.460938 3.558594 -6.140625 2.660156 -5.859375 Z M 2.660156 -5.859375 "/></g></g></g><g fill="#274352" fill-opacity="1"><g transform="translate(242.468513, 272.234781)"><g/></g></g><g fill="#274352" fill-opacity="1"><g transform="translate(254.065509, 272.234781)"><g><path d="M 0.519531 -6.761719 C 0.519531 -6.460938 0.660156 -6.140625 0.980469 -6.140625 L 7.140625 -6.140625 C 7.441406 -6.140625 7.578125 -6.460938 7.578125 -6.761719 C 7.578125 -7.058594 7.441406 -7.359375 7.140625 -7.359375 L 0.980469 -7.359375 C 0.679688 -7.359375 0.519531 -7.058594 0.519531 -6.761719 Z M 0.519531 -6.761719 "/></g></g></g><g fill="#000000" fill-opacity="1"><g transform="translate(103.516653, 316.993828)"><g><path d="M 3.328125 -7.78125 C 2.847656 -7.78125 2.472656 -7.660156 2.203125 -7.421875 C 1.929688 -7.191406 1.785156 -6.863281 1.765625 -6.4375 C 1.753906 -6.25 1.78125 -6.085938 1.84375 -5.953125 C 1.90625 -5.828125 2.003906 -5.707031 2.140625 -5.59375 C 2.273438 -5.488281 2.441406 -5.390625 2.640625 -5.296875 C 2.835938 -5.210938 3.066406 -5.128906 3.328125 -5.046875 C 4.117188 -4.835938 4.703125 -4.535156 5.078125 -4.140625 C 5.460938 -3.753906 5.628906 -3.265625 5.578125 -2.671875 C 5.554688 -1.910156 5.3125 -1.296875 4.84375 -0.828125 C 4.382812 -0.367188 3.722656 -0.125 2.859375 -0.09375 C 2.453125 -0.09375 2.097656 -0.15625 1.796875 -0.28125 C 1.492188 -0.40625 1.257812 -0.550781 1.09375 -0.71875 C 0.757812 -0.957031 0.570312 -1.289062 0.53125 -1.71875 C 0.53125 -2.363281 0.65625 -2.632812 0.90625 -2.53125 C 1.1875 -2.144531 1.488281 -1.832031 1.8125 -1.59375 C 2.144531 -1.351562 2.492188 -1.222656 2.859375 -1.203125 C 3.347656 -1.171875 3.738281 -1.28125 4.03125 -1.53125 C 4.320312 -1.789062 4.503906 -2.125 4.578125 -2.53125 C 4.597656 -2.914062 4.5 -3.226562 4.28125 -3.46875 C 4.0625 -3.707031 3.742188 -3.882812 3.328125 -4 C 2.390625 -4.238281 1.695312 -4.535156 1.25 -4.890625 C 0.8125 -5.242188 0.617188 -5.695312 0.671875 -6.25 C 0.691406 -6.988281 0.929688 -7.546875 1.390625 -7.921875 C 1.847656 -8.304688 2.492188 -8.507812 3.328125 -8.53125 C 3.742188 -8.53125 4.148438 -8.410156 4.546875 -8.171875 C 4.953125 -7.941406 5.3125 -7.648438 5.625 -7.296875 C 5.46875 -6.703125 5.148438 -6.476562 4.671875 -6.625 C 4.503906 -6.9375 4.300781 -7.195312 4.0625 -7.40625 C 3.832031 -7.625 3.585938 -7.75 3.328125 -7.78125 Z M 3.328125 -7.78125 "/></g></g></g><g fill="#000000" fill-opacity="1"><g transform="translate(116.188581, 316.993828)"><g><path d="M 4.671875 -8.296875 C 4.910156 -8.335938 5.113281 -8.378906 5.28125 -8.421875 C 5.445312 -8.472656 5.578125 -8.507812 5.671875 -8.53125 C 5.703125 -8.53125 5.738281 -8.53125 5.78125 -8.53125 C 5.832031 -8.539062 5.890625 -8.554688 5.953125 -8.578125 C 6.023438 -8.597656 6.078125 -8.617188 6.109375 -8.640625 C 6.140625 -8.660156 6.171875 -8.65625 6.203125 -8.625 C 6.273438 -8.53125 6.347656 -8.390625 6.421875 -8.203125 C 6.503906 -8.023438 6.570312 -7.832031 6.625 -7.625 C 6.644531 -7.46875 6.648438 -7.347656 6.640625 -7.265625 C 6.640625 -7.179688 6.601562 -7.128906 6.53125 -7.109375 L 5.09375 -7.296875 C 4.976562 -7.316406 4.878906 -7.328125 4.796875 -7.328125 C 4.722656 -7.328125 4.648438 -7.328125 4.578125 -7.328125 C 4.484375 -7.328125 4.398438 -7.328125 4.328125 -7.328125 C 4.253906 -7.328125 4.195312 -7.316406 4.15625 -7.296875 C 4.101562 -6.648438 4.054688 -5.835938 4.015625 -4.859375 C 3.972656 -3.890625 3.953125 -2.796875 3.953125 -1.578125 C 3.953125 -1.453125 3.953125 -1.347656 3.953125 -1.265625 C 3.960938 -1.191406 3.976562 -1.117188 4 -1.046875 L 4 -0.46875 C 3.945312 -0.320312 3.753906 -0.226562 3.421875 -0.1875 C 3.109375 -0.1875 2.953125 -0.21875 2.953125 -0.28125 C 2.972656 -0.59375 2.984375 -1.210938 2.984375 -2.140625 C 2.984375 -3.066406 2.957031 -4.273438 2.90625 -5.765625 C 2.882812 -6.097656 2.867188 -6.394531 2.859375 -6.65625 C 2.859375 -6.914062 2.859375 -7.128906 2.859375 -7.296875 C 2.816406 -7.296875 2.742188 -7.289062 2.640625 -7.28125 C 2.535156 -7.28125 2.445312 -7.269531 2.375 -7.25 C 2.289062 -7.25 2.210938 -7.242188 2.140625 -7.234375 C 2.066406 -7.234375 2.019531 -7.222656 2 -7.203125 C 1.71875 -7.171875 1.46875 -7.117188 1.25 -7.046875 C 1.03125 -6.984375 0.804688 -6.90625 0.578125 -6.8125 C 0.378906 -7.101562 0.328125 -7.515625 0.421875 -8.046875 L 1.953125 -8.046875 C 2.191406 -8.097656 2.664062 -8.148438 3.375 -8.203125 C 3.6875 -8.222656 3.945312 -8.238281 4.15625 -8.25 C 4.375 -8.257812 4.546875 -8.273438 4.671875 -8.296875 Z M 4.671875 -8.296875 "/></g></g></g><g fill="#000000" fill-opacity="1"><g transform="translate(129.543081, 316.993828)"><g><path d="M 5.859375 -2.765625 C 5.265625 -2.765625 4.691406 -2.75 4.140625 -2.71875 C 3.585938 -2.695312 3.050781 -2.648438 2.53125 -2.578125 C 2.445312 -2.316406 2.359375 -2.0625 2.265625 -1.8125 C 2.179688 -1.570312 2.085938 -1.347656 1.984375 -1.140625 C 1.890625 -0.941406 1.789062 -0.765625 1.6875 -0.609375 C 1.582031 -0.460938 1.476562 -0.351562 1.375 -0.28125 C 1 -0.21875 0.71875 -0.203125 0.53125 -0.234375 C 0.351562 -0.265625 0.257812 -0.363281 0.25 -0.53125 C 0.257812 -0.550781 0.273438 -0.585938 0.296875 -0.640625 C 0.328125 -0.703125 0.351562 -0.789062 0.375 -0.90625 C 0.550781 -1.113281 0.6875 -1.3125 0.78125 -1.5 C 0.882812 -1.695312 0.972656 -1.863281 1.046875 -2 C 1.453125 -2.988281 1.847656 -4.003906 2.234375 -5.046875 C 2.628906 -6.085938 3.046875 -7.179688 3.484375 -8.328125 C 3.867188 -8.585938 4.3125 -8.570312 4.8125 -8.28125 C 5.25 -7.164062 5.691406 -6.0625 6.140625 -4.96875 C 6.585938 -3.875 7.050781 -2.789062 7.53125 -1.71875 C 7.625 -1.476562 7.710938 -1.257812 7.796875 -1.0625 C 7.890625 -0.875 7.972656 -0.710938 8.046875 -0.578125 C 8.097656 -0.503906 8.09375 -0.421875 8.03125 -0.328125 C 7.976562 -0.234375 7.859375 -0.1875 7.671875 -0.1875 C 7.242188 -0.1875 6.941406 -0.226562 6.765625 -0.3125 C 6.585938 -0.394531 6.476562 -0.5 6.4375 -0.625 C 6.414062 -0.707031 6.398438 -0.8125 6.390625 -0.9375 C 6.378906 -1.0625 6.351562 -1.210938 6.3125 -1.390625 C 6.269531 -1.566406 6.210938 -1.769531 6.140625 -2 C 6.078125 -2.226562 5.984375 -2.484375 5.859375 -2.765625 Z M 5.53125 -3.625 C 5.363281 -4.15625 5.164062 -4.675781 4.9375 -5.1875 C 4.707031 -5.695312 4.460938 -6.253906 4.203125 -6.859375 C 4.023438 -6.453125 3.828125 -5.976562 3.609375 -5.4375 C 3.390625 -4.90625 3.140625 -4.269531 2.859375 -3.53125 C 3.410156 -3.53125 3.898438 -3.539062 4.328125 -3.5625 C 4.765625 -3.582031 5.164062 -3.601562 5.53125 -3.625 Z M 5.53125 -3.625 "/></g></g></g><g fill="#000000" fill-opacity="1"><g transform="translate(144.262739, 316.993828)"><g><path d="M 1.765625 -8.15625 C 1.785156 -8.007812 1.84375 -7.84375 1.9375 -7.65625 C 2.039062 -7.46875 2.1875 -7.203125 2.375 -6.859375 C 2.5 -6.671875 2.65625 -6.441406 2.84375 -6.171875 C 3.039062 -5.910156 3.269531 -5.597656 3.53125 -5.234375 L 3.765625 -4.90625 C 4.023438 -5.269531 4.273438 -5.613281 4.515625 -5.9375 C 4.753906 -6.257812 4.984375 -6.597656 5.203125 -6.953125 C 5.390625 -7.296875 5.53125 -7.585938 5.625 -7.828125 C 5.71875 -8.066406 5.75 -8.269531 5.71875 -8.4375 C 5.75 -8.457031 5.78125 -8.476562 5.8125 -8.5 C 5.84375 -8.519531 5.890625 -8.53125 5.953125 -8.53125 C 6.421875 -8.40625 6.75 -8.273438 6.9375 -8.140625 C 7.125 -8.003906 7.179688 -7.882812 7.109375 -7.78125 C 7.035156 -7.695312 6.9375 -7.566406 6.8125 -7.390625 C 6.695312 -7.210938 6.550781 -7.003906 6.375 -6.765625 L 6.203125 -6.484375 C 5.785156 -5.835938 5.421875 -5.300781 5.109375 -4.875 C 4.804688 -4.457031 4.546875 -4.117188 4.328125 -3.859375 L 4.328125 -3.28125 C 4.316406 -2.96875 4.3125 -2.675781 4.3125 -2.40625 C 4.3125 -2.144531 4.316406 -1.925781 4.328125 -1.75 L 4.328125 -1.140625 C 4.378906 -0.796875 4.378906 -0.570312 4.328125 -0.46875 C 4.285156 -0.28125 4.082031 -0.1875 3.71875 -0.1875 C 3.550781 -0.164062 3.421875 -0.171875 3.328125 -0.203125 C 3.242188 -0.242188 3.203125 -0.300781 3.203125 -0.375 L 3.203125 -3.703125 C 2.890625 -4.191406 2.578125 -4.632812 2.265625 -5.03125 C 1.960938 -5.425781 1.679688 -5.832031 1.421875 -6.25 C 1.234375 -6.53125 1.0625 -6.773438 0.90625 -6.984375 C 0.757812 -7.203125 0.648438 -7.367188 0.578125 -7.484375 C 0.429688 -7.628906 0.507812 -7.800781 0.8125 -8 C 1.238281 -8.25 1.554688 -8.300781 1.765625 -8.15625 Z M 1.765625 -8.15625 "/></g></g></g><g fill="#000000" fill-opacity="1"><g transform="translate(158.299824, 316.993828)"><g/></g></g><g fill="#000000" fill-opacity="1"><g transform="translate(176.919914, 316.993828)"><g><path d="M 7.203125 -0.328125 C 7.222656 -0.566406 7.234375 -1.039062 7.234375 -1.75 C 7.234375 -2.457031 7.222656 -3.320312 7.203125 -4.34375 C 6.984375 -4.363281 6.769531 -4.382812 6.5625 -4.40625 C 6.363281 -4.425781 6.160156 -4.4375 5.953125 -4.4375 C 5.492188 -4.4375 5.050781 -4.425781 4.625 -4.40625 C 4.207031 -4.382812 3.789062 -4.363281 3.375 -4.34375 C 3.3125 -4.320312 3.238281 -4.304688 3.15625 -4.296875 C 3.082031 -4.285156 3 -4.269531 2.90625 -4.25 C 2.757812 -4.25 2.523438 -4.195312 2.203125 -4.09375 C 2.203125 -3.9375 2.195312 -3.710938 2.1875 -3.421875 C 2.1875 -3.128906 2.171875 -2.816406 2.140625 -2.484375 L 2.140625 -1.578125 C 2.140625 -1.453125 2.140625 -1.347656 2.140625 -1.265625 C 2.148438 -1.179688 2.171875 -1.125 2.203125 -1.09375 L 2.203125 -0.953125 C 2.242188 -0.816406 2.242188 -0.65625 2.203125 -0.46875 C 2.148438 -0.332031 1.957031 -0.238281 1.625 -0.1875 C 1.445312 -0.1875 1.320312 -0.195312 1.25 -0.21875 C 1.175781 -0.238281 1.140625 -0.257812 1.140625 -0.28125 C 1.171875 -0.625 1.171875 -1.257812 1.140625 -2.1875 C 1.109375 -3.113281 1.09375 -4.304688 1.09375 -5.765625 C 1.09375 -5.859375 1.09375 -5.96875 1.09375 -6.09375 C 1.09375 -6.21875 1.078125 -6.363281 1.046875 -6.53125 C 1.023438 -6.945312 1.015625 -7.3125 1.015625 -7.625 C 1.015625 -7.9375 1.023438 -8.175781 1.046875 -8.34375 C 1.046875 -8.40625 1.078125 -8.4375 1.140625 -8.4375 C 1.304688 -8.414062 1.453125 -8.390625 1.578125 -8.359375 C 1.710938 -8.335938 1.835938 -8.300781 1.953125 -8.25 C 2.335938 -8.195312 2.476562 -8.097656 2.375 -7.953125 C 2.351562 -7.953125 2.320312 -7.71875 2.28125 -7.25 C 2.25 -6.78125 2.222656 -6.0625 2.203125 -5.09375 L 3.328125 -5.09375 C 3.398438 -5.09375 3.5 -5.09375 3.625 -5.09375 C 3.75 -5.101562 3.890625 -5.125 4.046875 -5.15625 C 4.523438 -5.175781 4.941406 -5.195312 5.296875 -5.21875 C 5.648438 -5.25 5.9375 -5.273438 6.15625 -5.296875 C 6.175781 -5.296875 6.203125 -5.296875 6.234375 -5.296875 C 6.265625 -5.304688 6.3125 -5.320312 6.375 -5.34375 C 6.550781 -5.363281 6.703125 -5.382812 6.828125 -5.40625 C 6.960938 -5.425781 7.054688 -5.453125 7.109375 -5.484375 L 7.15625 -5.484375 L 7.15625 -5.90625 C 7.15625 -6.125 7.148438 -6.335938 7.140625 -6.546875 C 7.140625 -6.765625 7.128906 -7.03125 7.109375 -7.34375 C 7.078125 -7.507812 7.054688 -7.679688 7.046875 -7.859375 C 7.046875 -8.046875 7.046875 -8.222656 7.046875 -8.390625 C 7.109375 -8.492188 7.160156 -8.523438 7.203125 -8.484375 L 8 -8.34375 C 8.332031 -8.300781 8.476562 -8.203125 8.4375 -8.046875 C 8.363281 -7.835938 8.304688 -7.179688 8.265625 -6.078125 C 8.222656 -4.972656 8.203125 -3.488281 8.203125 -1.625 C 8.203125 -1.4375 8.203125 -1.3125 8.203125 -1.25 C 8.210938 -1.195312 8.226562 -1.144531 8.25 -1.09375 C 8.300781 -0.957031 8.300781 -0.75 8.25 -0.46875 C 8.226562 -0.394531 8.171875 -0.335938 8.078125 -0.296875 C 7.984375 -0.265625 7.882812 -0.25 7.78125 -0.25 C 7.394531 -0.25 7.203125 -0.273438 7.203125 -0.328125 Z M 7.203125 -0.328125 "/></g></g></g><g fill="#000000" fill-opacity="1"><g transform="translate(193.053474, 316.993828)"><g><path d="M 6.90625 -1.90625 C 7.03125 -2.1875 7.109375 -2.707031 7.140625 -3.46875 C 7.179688 -4.238281 7.203125 -5.207031 7.203125 -6.375 C 7.203125 -6.5 7.195312 -6.632812 7.1875 -6.78125 C 7.1875 -6.925781 7.175781 -7.078125 7.15625 -7.234375 C 7.125 -7.515625 7.109375 -7.753906 7.109375 -7.953125 C 7.109375 -8.148438 7.109375 -8.296875 7.109375 -8.390625 C 7.109375 -8.453125 7.15625 -8.484375 7.25 -8.484375 C 7.3125 -8.484375 7.410156 -8.46875 7.546875 -8.4375 C 7.691406 -8.414062 7.84375 -8.378906 8 -8.328125 C 8.175781 -8.285156 8.296875 -8.238281 8.359375 -8.1875 C 8.421875 -8.132812 8.429688 -8.070312 8.390625 -8 C 8.367188 -7.90625 8.347656 -7.703125 8.328125 -7.390625 C 8.304688 -7.085938 8.296875 -6.703125 8.296875 -6.234375 C 8.316406 -4.921875 8.296875 -3.890625 8.234375 -3.140625 C 8.179688 -2.398438 8.070312 -1.878906 7.90625 -1.578125 C 7.625 -1.066406 7.210938 -0.691406 6.671875 -0.453125 C 6.140625 -0.210938 5.503906 -0.09375 4.765625 -0.09375 C 4.023438 -0.09375 3.40625 -0.179688 2.90625 -0.359375 C 2.40625 -0.535156 2.023438 -0.828125 1.765625 -1.234375 C 1.617188 -1.398438 1.5 -1.601562 1.40625 -1.84375 C 1.3125 -2.09375 1.257812 -2.398438 1.25 -2.765625 C 1.21875 -3.015625 1.191406 -3.429688 1.171875 -4.015625 C 1.148438 -4.609375 1.140625 -5.347656 1.140625 -6.234375 L 1.140625 -8.234375 C 1.140625 -8.265625 1.175781 -8.28125 1.25 -8.28125 C 1.363281 -8.28125 1.476562 -8.269531 1.59375 -8.25 C 1.71875 -8.226562 1.835938 -8.210938 1.953125 -8.203125 C 2.296875 -8.097656 2.421875 -7.984375 2.328125 -7.859375 C 2.316406 -7.617188 2.304688 -7.34375 2.296875 -7.03125 C 2.296875 -6.71875 2.296875 -6.410156 2.296875 -6.109375 C 2.265625 -4.929688 2.273438 -3.972656 2.328125 -3.234375 C 2.390625 -2.503906 2.503906 -2.0625 2.671875 -1.90625 C 2.878906 -1.539062 3.160156 -1.273438 3.515625 -1.109375 C 3.878906 -0.941406 4.3125 -0.859375 4.8125 -0.859375 C 5.320312 -0.828125 5.75 -0.894531 6.09375 -1.0625 C 6.445312 -1.226562 6.71875 -1.507812 6.90625 -1.90625 Z M 6.90625 -1.90625 "/></g></g></g><g fill="#000000" fill-opacity="1"><g transform="translate(209.187029, 316.993828)"><g><path d="M 1.203125 -0.234375 C 1.222656 -0.578125 1.226562 -1.21875 1.21875 -2.15625 C 1.21875 -3.09375 1.191406 -4.296875 1.140625 -5.765625 C 1.140625 -5.878906 1.140625 -6.007812 1.140625 -6.15625 C 1.140625 -6.3125 1.125 -6.5 1.09375 -6.71875 C 1.050781 -7.53125 1.050781 -8.003906 1.09375 -8.140625 C 1.125 -8.191406 1.15625 -8.226562 1.1875 -8.25 C 1.21875 -8.28125 1.265625 -8.304688 1.328125 -8.328125 C 1.398438 -8.328125 1.472656 -8.328125 1.546875 -8.328125 C 1.617188 -8.328125 1.691406 -8.3125 1.765625 -8.28125 C 1.859375 -8.257812 1.921875 -8.242188 1.953125 -8.234375 C 1.992188 -8.234375 2.023438 -8.234375 2.046875 -8.234375 C 2.179688 -8.210938 2.285156 -8.171875 2.359375 -8.109375 C 2.441406 -8.046875 2.484375 -7.976562 2.484375 -7.90625 C 3.171875 -7.070312 3.925781 -6.179688 4.75 -5.234375 C 5.570312 -4.285156 6.453125 -3.316406 7.390625 -2.328125 C 7.390625 -2.734375 7.382812 -3.222656 7.375 -3.796875 C 7.375 -4.378906 7.363281 -5.019531 7.34375 -5.71875 C 7.320312 -5.925781 7.304688 -6.132812 7.296875 -6.34375 C 7.296875 -6.5625 7.296875 -6.734375 7.296875 -6.859375 C 7.296875 -6.953125 7.289062 -7.054688 7.28125 -7.171875 C 7.28125 -7.296875 7.269531 -7.429688 7.25 -7.578125 C 7.195312 -7.984375 7.195312 -8.234375 7.25 -8.328125 C 7.289062 -8.460938 7.351562 -8.53125 7.4375 -8.53125 L 7.625 -8.484375 C 7.75 -8.453125 7.847656 -8.429688 7.921875 -8.421875 C 7.992188 -8.421875 8.054688 -8.410156 8.109375 -8.390625 C 8.441406 -8.234375 8.566406 -8.117188 8.484375 -8.046875 L 8.484375 -7.953125 C 8.453125 -7.765625 8.425781 -7.578125 8.40625 -7.390625 C 8.394531 -7.203125 8.390625 -7.023438 8.390625 -6.859375 C 8.390625 -5.679688 8.390625 -4.617188 8.390625 -3.671875 C 8.398438 -2.734375 8.414062 -1.96875 8.4375 -1.375 C 8.4375 -1.332031 8.4375 -1.28125 8.4375 -1.21875 C 8.4375 -1.164062 8.453125 -1.101562 8.484375 -1.03125 L 8.484375 -0.75 C 8.484375 -0.726562 8.484375 -0.695312 8.484375 -0.65625 C 8.492188 -0.613281 8.507812 -0.582031 8.53125 -0.5625 L 8.53125 -0.46875 C 8.351562 -0.175781 8.050781 -0.128906 7.625 -0.328125 C 6.8125 -1.316406 6.003906 -2.285156 5.203125 -3.234375 C 4.410156 -4.179688 3.582031 -5.085938 2.71875 -5.953125 C 2.65625 -6.015625 2.59375 -6.046875 2.53125 -6.046875 C 2.5 -6.046875 2.476562 -6.035156 2.46875 -6.015625 C 2.46875 -5.992188 2.453125 -5.957031 2.421875 -5.90625 C 2.398438 -5.5625 2.375 -5.019531 2.34375 -4.28125 C 2.3125 -3.550781 2.296875 -2.644531 2.296875 -1.5625 L 2.296875 -0.984375 C 2.304688 -0.898438 2.3125 -0.804688 2.3125 -0.703125 C 2.320312 -0.609375 2.328125 -0.515625 2.328125 -0.421875 C 2.316406 -0.347656 2.25 -0.285156 2.125 -0.234375 C 2.007812 -0.191406 1.859375 -0.160156 1.671875 -0.140625 C 1.503906 -0.140625 1.382812 -0.144531 1.3125 -0.15625 C 1.238281 -0.175781 1.203125 -0.203125 1.203125 -0.234375 Z M 1.203125 -0.234375 "/></g></g></g><g fill="#000000" fill-opacity="1"><g transform="translate(225.320595, 316.993828)"><g><path d="M 7.875 -5.09375 C 7.9375 -5.125 8 -5.140625 8.0625 -5.140625 C 8.125 -5.140625 8.171875 -5.125 8.203125 -5.09375 C 8.273438 -5.050781 8.332031 -4.957031 8.375 -4.8125 C 8.425781 -4.664062 8.476562 -4.488281 8.53125 -4.28125 C 8.582031 -4.007812 8.566406 -3.851562 8.484375 -3.8125 L 8.390625 -3.8125 C 8.316406 -3.832031 8.234375 -3.851562 8.140625 -3.875 C 8.046875 -3.894531 7.941406 -3.90625 7.828125 -3.90625 C 7.796875 -3.476562 7.78125 -3.039062 7.78125 -2.59375 C 7.78125 -2.15625 7.796875 -1.785156 7.828125 -1.484375 C 7.898438 -0.972656 7.675781 -0.617188 7.15625 -0.421875 C 6.789062 -0.304688 6.421875 -0.222656 6.046875 -0.171875 C 5.671875 -0.117188 5.273438 -0.09375 4.859375 -0.09375 C 4.140625 -0.15625 3.53125 -0.289062 3.03125 -0.5 C 2.53125 -0.707031 2.117188 -0.988281 1.796875 -1.34375 C 1.472656 -1.695312 1.226562 -2.113281 1.0625 -2.59375 C 0.894531 -3.082031 0.796875 -3.628906 0.765625 -4.234375 C 0.804688 -5.628906 1.203125 -6.6875 1.953125 -7.40625 C 2.703125 -8.132812 3.785156 -8.523438 5.203125 -8.578125 C 6.390625 -8.628906 7.335938 -8.390625 8.046875 -7.859375 C 8.097656 -7.546875 8.054688 -7.3125 7.921875 -7.15625 C 7.785156 -7 7.546875 -6.929688 7.203125 -6.953125 C 6.722656 -7.535156 6.070312 -7.828125 5.25 -7.828125 C 4.257812 -7.828125 3.492188 -7.550781 2.953125 -7 C 2.421875 -6.457031 2.117188 -5.601562 2.046875 -4.4375 C 2.046875 -3.351562 2.285156 -2.503906 2.765625 -1.890625 C 3.242188 -1.273438 3.972656 -0.945312 4.953125 -0.90625 C 5.347656 -0.90625 5.679688 -0.953125 5.953125 -1.046875 C 6.234375 -1.140625 6.457031 -1.265625 6.625 -1.421875 C 6.644531 -1.578125 6.660156 -1.753906 6.671875 -1.953125 C 6.691406 -2.148438 6.703125 -2.359375 6.703125 -2.578125 C 6.710938 -2.804688 6.710938 -3.035156 6.703125 -3.265625 C 6.691406 -3.492188 6.679688 -3.722656 6.671875 -3.953125 C 6.578125 -3.929688 6.476562 -3.914062 6.375 -3.90625 C 6.28125 -3.90625 6.171875 -3.90625 6.046875 -3.90625 C 5.835938 -3.882812 5.632812 -3.84375 5.4375 -3.78125 C 5.238281 -3.726562 5.03125 -3.660156 4.8125 -3.578125 C 4.695312 -3.628906 4.601562 -3.695312 4.53125 -3.78125 C 4.46875 -3.875 4.425781 -3.972656 4.40625 -4.078125 C 4.382812 -4.191406 4.394531 -4.300781 4.4375 -4.40625 C 4.488281 -4.507812 4.566406 -4.597656 4.671875 -4.671875 C 4.878906 -4.671875 5.09375 -4.671875 5.3125 -4.671875 C 5.53125 -4.679688 5.742188 -4.691406 5.953125 -4.703125 C 6.078125 -4.710938 6.238281 -4.734375 6.4375 -4.765625 C 6.644531 -4.804688 6.847656 -4.84375 7.046875 -4.875 C 7.253906 -4.914062 7.4375 -4.957031 7.59375 -5 C 7.75 -5.039062 7.84375 -5.070312 7.875 -5.09375 Z M 7.875 -5.09375 "/></g></g></g><g fill="#000000" fill-opacity="1"><g transform="translate(241.454161, 316.993828)"><g><path d="M 1.140625 -2.328125 C 1.097656 -3.054688 1.097656 -3.664062 1.140625 -4.15625 L 1.140625 -5.625 C 1.171875 -6.03125 1.1875 -6.378906 1.1875 -6.671875 C 1.195312 -6.972656 1.203125 -7.191406 1.203125 -7.328125 C 1.171875 -7.398438 1.148438 -7.472656 1.140625 -7.546875 C 1.140625 -7.617188 1.125 -7.695312 1.09375 -7.78125 C 1.050781 -8.007812 1.050781 -8.191406 1.09375 -8.328125 C 1.132812 -8.410156 1.296875 -8.429688 1.578125 -8.390625 C 1.597656 -8.390625 1.625 -8.382812 1.65625 -8.375 C 1.6875 -8.375 1.722656 -8.359375 1.765625 -8.328125 C 1.859375 -8.296875 1.941406 -8.269531 2.015625 -8.25 C 2.085938 -8.226562 2.148438 -8.226562 2.203125 -8.25 C 2.984375 -8.382812 3.65625 -8.429688 4.21875 -8.390625 C 4.789062 -8.347656 5.257812 -8.21875 5.625 -8 C 5.882812 -7.863281 6.070312 -7.65625 6.1875 -7.375 C 6.3125 -7.09375 6.375 -6.742188 6.375 -6.328125 C 6.363281 -5.691406 6.171875 -5.1875 5.796875 -4.8125 C 5.421875 -4.445312 4.835938 -4.207031 4.046875 -4.09375 C 4.171875 -3.90625 4.289062 -3.71875 4.40625 -3.53125 C 4.53125 -3.34375 4.648438 -3.164062 4.765625 -3 C 5.078125 -2.539062 5.34375 -2.148438 5.5625 -1.828125 C 5.789062 -1.515625 5.988281 -1.300781 6.15625 -1.1875 C 6.34375 -1.125 6.519531 -1.035156 6.6875 -0.921875 C 6.863281 -0.804688 7.035156 -0.691406 7.203125 -0.578125 C 7.316406 -0.460938 7.300781 -0.378906 7.15625 -0.328125 C 7.007812 -0.273438 6.796875 -0.25 6.515625 -0.25 C 6.234375 -0.25 5.875 -0.257812 5.4375 -0.28125 C 4.875 -0.332031 4.617188 -0.488281 4.671875 -0.75 C 4.671875 -0.945312 4.609375 -1.191406 4.484375 -1.484375 C 4.359375 -1.773438 4.164062 -2.140625 3.90625 -2.578125 C 3.789062 -2.785156 3.648438 -3.003906 3.484375 -3.234375 C 3.328125 -3.472656 3.164062 -3.710938 3 -3.953125 C 2.757812 -3.929688 2.570312 -3.863281 2.4375 -3.75 C 2.3125 -3.644531 2.25 -3.503906 2.25 -3.328125 C 2.21875 -3.171875 2.203125 -2.953125 2.203125 -2.671875 C 2.203125 -2.390625 2.203125 -2.066406 2.203125 -1.703125 C 2.171875 -1.546875 2.160156 -1.351562 2.171875 -1.125 C 2.191406 -0.90625 2.21875 -0.6875 2.25 -0.46875 C 2.195312 -0.320312 2.003906 -0.226562 1.671875 -0.1875 C 1.316406 -0.1875 1.140625 -0.21875 1.140625 -0.28125 Z M 2.484375 -6.8125 C 2.429688 -6.425781 2.390625 -6.050781 2.359375 -5.6875 C 2.335938 -5.332031 2.328125 -5.023438 2.328125 -4.765625 C 3.359375 -4.742188 4.128906 -4.863281 4.640625 -5.125 C 5.148438 -5.382812 5.382812 -5.800781 5.34375 -6.375 C 5.363281 -6.863281 5.175781 -7.207031 4.78125 -7.40625 C 4.382812 -7.613281 3.789062 -7.65625 3 -7.53125 C 2.695312 -7.476562 2.523438 -7.300781 2.484375 -7 Z M 2.484375 -6.8125 "/></g></g></g><g fill="#000000" fill-opacity="1"><g transform="translate(255.491251, 316.993828)"><g><path d="M 1.765625 -8.15625 C 1.785156 -8.007812 1.84375 -7.84375 1.9375 -7.65625 C 2.039062 -7.46875 2.1875 -7.203125 2.375 -6.859375 C 2.5 -6.671875 2.65625 -6.441406 2.84375 -6.171875 C 3.039062 -5.910156 3.269531 -5.597656 3.53125 -5.234375 L 3.765625 -4.90625 C 4.023438 -5.269531 4.273438 -5.613281 4.515625 -5.9375 C 4.753906 -6.257812 4.984375 -6.597656 5.203125 -6.953125 C 5.390625 -7.296875 5.53125 -7.585938 5.625 -7.828125 C 5.71875 -8.066406 5.75 -8.269531 5.71875 -8.4375 C 5.75 -8.457031 5.78125 -8.476562 5.8125 -8.5 C 5.84375 -8.519531 5.890625 -8.53125 5.953125 -8.53125 C 6.421875 -8.40625 6.75 -8.273438 6.9375 -8.140625 C 7.125 -8.003906 7.179688 -7.882812 7.109375 -7.78125 C 7.035156 -7.695312 6.9375 -7.566406 6.8125 -7.390625 C 6.695312 -7.210938 6.550781 -7.003906 6.375 -6.765625 L 6.203125 -6.484375 C 5.785156 -5.835938 5.421875 -5.300781 5.109375 -4.875 C 4.804688 -4.457031 4.546875 -4.117188 4.328125 -3.859375 L 4.328125 -3.28125 C 4.316406 -2.96875 4.3125 -2.675781 4.3125 -2.40625 C 4.3125 -2.144531 4.316406 -1.925781 4.328125 -1.75 L 4.328125 -1.140625 C 4.378906 -0.796875 4.378906 -0.570312 4.328125 -0.46875 C 4.285156 -0.28125 4.082031 -0.1875 3.71875 -0.1875 C 3.550781 -0.164062 3.421875 -0.171875 3.328125 -0.203125 C 3.242188 -0.242188 3.203125 -0.300781 3.203125 -0.375 L 3.203125 -3.703125 C 2.890625 -4.191406 2.578125 -4.632812 2.265625 -5.03125 C 1.960938 -5.425781 1.679688 -5.832031 1.421875 -6.25 C 1.234375 -6.53125 1.0625 -6.773438 0.90625 -6.984375 C 0.757812 -7.203125 0.648438 -7.367188 0.578125 -7.484375 C 0.429688 -7.628906 0.507812 -7.800781 0.8125 -8 C 1.238281 -8.25 1.554688 -8.300781 1.765625 -8.15625 Z M 1.765625 -8.15625 "/></g></g></g><g fill="#000000" fill-opacity="1"><g transform="translate(269.528342, 316.993828)"><g><path d="M 0.859375 0.71875 C 1.160156 0.59375 1.410156 0.421875 1.609375 0.203125 C 1.816406 -0.015625 1.929688 -0.238281 1.953125 -0.46875 C 1.898438 -0.425781 1.835938 -0.390625 1.765625 -0.359375 C 1.691406 -0.335938 1.597656 -0.328125 1.484375 -0.328125 C 1.296875 -0.347656 1.15625 -0.410156 1.0625 -0.515625 C 0.976562 -0.628906 0.925781 -0.789062 0.90625 -1 C 0.925781 -1.1875 0.988281 -1.335938 1.09375 -1.453125 C 1.207031 -1.566406 1.382812 -1.632812 1.625 -1.65625 C 1.90625 -1.65625 2.117188 -1.578125 2.265625 -1.421875 C 2.410156 -1.273438 2.484375 -1.019531 2.484375 -0.65625 C 2.484375 -0.25 2.335938 0.09375 2.046875 0.375 C 1.765625 0.664062 1.382812 0.859375 0.90625 0.953125 Z M 0.859375 0.71875 "/></g></g></g><g fill="#000000" fill-opacity="1"><g transform="translate(105.929138, 333.904204)"><g><path d="M 3.328125 -7.78125 C 2.847656 -7.78125 2.472656 -7.660156 2.203125 -7.421875 C 1.929688 -7.191406 1.785156 -6.863281 1.765625 -6.4375 C 1.753906 -6.25 1.78125 -6.085938 1.84375 -5.953125 C 1.90625 -5.828125 2.003906 -5.707031 2.140625 -5.59375 C 2.273438 -5.488281 2.441406 -5.390625 2.640625 -5.296875 C 2.835938 -5.210938 3.066406 -5.128906 3.328125 -5.046875 C 4.117188 -4.835938 4.703125 -4.535156 5.078125 -4.140625 C 5.460938 -3.753906 5.628906 -3.265625 5.578125 -2.671875 C 5.554688 -1.910156 5.3125 -1.296875 4.84375 -0.828125 C 4.382812 -0.367188 3.722656 -0.125 2.859375 -0.09375 C 2.453125 -0.09375 2.097656 -0.15625 1.796875 -0.28125 C 1.492188 -0.40625 1.257812 -0.550781 1.09375 -0.71875 C 0.757812 -0.957031 0.570312 -1.289062 0.53125 -1.71875 C 0.53125 -2.363281 0.65625 -2.632812 0.90625 -2.53125 C 1.1875 -2.144531 1.488281 -1.832031 1.8125 -1.59375 C 2.144531 -1.351562 2.492188 -1.222656 2.859375 -1.203125 C 3.347656 -1.171875 3.738281 -1.28125 4.03125 -1.53125 C 4.320312 -1.789062 4.503906 -2.125 4.578125 -2.53125 C 4.597656 -2.914062 4.5 -3.226562 4.28125 -3.46875 C 4.0625 -3.707031 3.742188 -3.882812 3.328125 -4 C 2.390625 -4.238281 1.695312 -4.535156 1.25 -4.890625 C 0.8125 -5.242188 0.617188 -5.695312 0.671875 -6.25 C 0.691406 -6.988281 0.929688 -7.546875 1.390625 -7.921875 C 1.847656 -8.304688 2.492188 -8.507812 3.328125 -8.53125 C 3.742188 -8.53125 4.148438 -8.410156 4.546875 -8.171875 C 4.953125 -7.941406 5.3125 -7.648438 5.625 -7.296875 C 5.46875 -6.703125 5.148438 -6.476562 4.671875 -6.625 C 4.503906 -6.9375 4.300781 -7.195312 4.0625 -7.40625 C 3.832031 -7.625 3.585938 -7.75 3.328125 -7.78125 Z M 3.328125 -7.78125 "/></g></g></g><g fill="#000000" fill-opacity="1"><g transform="translate(118.601066, 333.904204)"><g><path d="M 4.671875 -8.296875 C 4.910156 -8.335938 5.113281 -8.378906 5.28125 -8.421875 C 5.445312 -8.472656 5.578125 -8.507812 5.671875 -8.53125 C 5.703125 -8.53125 5.738281 -8.53125 5.78125 -8.53125 C 5.832031 -8.539062 5.890625 -8.554688 5.953125 -8.578125 C 6.023438 -8.597656 6.078125 -8.617188 6.109375 -8.640625 C 6.140625 -8.660156 6.171875 -8.65625 6.203125 -8.625 C 6.273438 -8.53125 6.347656 -8.390625 6.421875 -8.203125 C 6.503906 -8.023438 6.570312 -7.832031 6.625 -7.625 C 6.644531 -7.46875 6.648438 -7.347656 6.640625 -7.265625 C 6.640625 -7.179688 6.601562 -7.128906 6.53125 -7.109375 L 5.09375 -7.296875 C 4.976562 -7.316406 4.878906 -7.328125 4.796875 -7.328125 C 4.722656 -7.328125 4.648438 -7.328125 4.578125 -7.328125 C 4.484375 -7.328125 4.398438 -7.328125 4.328125 -7.328125 C 4.253906 -7.328125 4.195312 -7.316406 4.15625 -7.296875 C 4.101562 -6.648438 4.054688 -5.835938 4.015625 -4.859375 C 3.972656 -3.890625 3.953125 -2.796875 3.953125 -1.578125 C 3.953125 -1.453125 3.953125 -1.347656 3.953125 -1.265625 C 3.960938 -1.191406 3.976562 -1.117188 4 -1.046875 L 4 -0.46875 C 3.945312 -0.320312 3.753906 -0.226562 3.421875 -0.1875 C 3.109375 -0.1875 2.953125 -0.21875 2.953125 -0.28125 C 2.972656 -0.59375 2.984375 -1.210938 2.984375 -2.140625 C 2.984375 -3.066406 2.957031 -4.273438 2.90625 -5.765625 C 2.882812 -6.097656 2.867188 -6.394531 2.859375 -6.65625 C 2.859375 -6.914062 2.859375 -7.128906 2.859375 -7.296875 C 2.816406 -7.296875 2.742188 -7.289062 2.640625 -7.28125 C 2.535156 -7.28125 2.445312 -7.269531 2.375 -7.25 C 2.289062 -7.25 2.210938 -7.242188 2.140625 -7.234375 C 2.066406 -7.234375 2.019531 -7.222656 2 -7.203125 C 1.71875 -7.171875 1.46875 -7.117188 1.25 -7.046875 C 1.03125 -6.984375 0.804688 -6.90625 0.578125 -6.8125 C 0.378906 -7.101562 0.328125 -7.515625 0.421875 -8.046875 L 1.953125 -8.046875 C 2.191406 -8.097656 2.664062 -8.148438 3.375 -8.203125 C 3.6875 -8.222656 3.945312 -8.238281 4.15625 -8.25 C 4.375 -8.257812 4.546875 -8.273438 4.671875 -8.296875 Z M 4.671875 -8.296875 "/></g></g></g><g fill="#000000" fill-opacity="1"><g transform="translate(131.955567, 333.904204)"><g><path d="M 5.859375 -2.765625 C 5.265625 -2.765625 4.691406 -2.75 4.140625 -2.71875 C 3.585938 -2.695312 3.050781 -2.648438 2.53125 -2.578125 C 2.445312 -2.316406 2.359375 -2.0625 2.265625 -1.8125 C 2.179688 -1.570312 2.085938 -1.347656 1.984375 -1.140625 C 1.890625 -0.941406 1.789062 -0.765625 1.6875 -0.609375 C 1.582031 -0.460938 1.476562 -0.351562 1.375 -0.28125 C 1 -0.21875 0.71875 -0.203125 0.53125 -0.234375 C 0.351562 -0.265625 0.257812 -0.363281 0.25 -0.53125 C 0.257812 -0.550781 0.273438 -0.585938 0.296875 -0.640625 C 0.328125 -0.703125 0.351562 -0.789062 0.375 -0.90625 C 0.550781 -1.113281 0.6875 -1.3125 0.78125 -1.5 C 0.882812 -1.695312 0.972656 -1.863281 1.046875 -2 C 1.453125 -2.988281 1.847656 -4.003906 2.234375 -5.046875 C 2.628906 -6.085938 3.046875 -7.179688 3.484375 -8.328125 C 3.867188 -8.585938 4.3125 -8.570312 4.8125 -8.28125 C 5.25 -7.164062 5.691406 -6.0625 6.140625 -4.96875 C 6.585938 -3.875 7.050781 -2.789062 7.53125 -1.71875 C 7.625 -1.476562 7.710938 -1.257812 7.796875 -1.0625 C 7.890625 -0.875 7.972656 -0.710938 8.046875 -0.578125 C 8.097656 -0.503906 8.09375 -0.421875 8.03125 -0.328125 C 7.976562 -0.234375 7.859375 -0.1875 7.671875 -0.1875 C 7.242188 -0.1875 6.941406 -0.226562 6.765625 -0.3125 C 6.585938 -0.394531 6.476562 -0.5 6.4375 -0.625 C 6.414062 -0.707031 6.398438 -0.8125 6.390625 -0.9375 C 6.378906 -1.0625 6.351562 -1.210938 6.3125 -1.390625 C 6.269531 -1.566406 6.210938 -1.769531 6.140625 -2 C 6.078125 -2.226562 5.984375 -2.484375 5.859375 -2.765625 Z M 5.53125 -3.625 C 5.363281 -4.15625 5.164062 -4.675781 4.9375 -5.1875 C 4.707031 -5.695312 4.460938 -6.253906 4.203125 -6.859375 C 4.023438 -6.453125 3.828125 -5.976562 3.609375 -5.4375 C 3.390625 -4.90625 3.140625 -4.269531 2.859375 -3.53125 C 3.410156 -3.53125 3.898438 -3.539062 4.328125 -3.5625 C 4.765625 -3.582031 5.164062 -3.601562 5.53125 -3.625 Z M 5.53125 -3.625 "/></g></g></g><g fill="#000000" fill-opacity="1"><g transform="translate(146.675225, 333.904204)"><g><path d="M 1.765625 -8.15625 C 1.785156 -8.007812 1.84375 -7.84375 1.9375 -7.65625 C 2.039062 -7.46875 2.1875 -7.203125 2.375 -6.859375 C 2.5 -6.671875 2.65625 -6.441406 2.84375 -6.171875 C 3.039062 -5.910156 3.269531 -5.597656 3.53125 -5.234375 L 3.765625 -4.90625 C 4.023438 -5.269531 4.273438 -5.613281 4.515625 -5.9375 C 4.753906 -6.257812 4.984375 -6.597656 5.203125 -6.953125 C 5.390625 -7.296875 5.53125 -7.585938 5.625 -7.828125 C 5.71875 -8.066406 5.75 -8.269531 5.71875 -8.4375 C 5.75 -8.457031 5.78125 -8.476562 5.8125 -8.5 C 5.84375 -8.519531 5.890625 -8.53125 5.953125 -8.53125 C 6.421875 -8.40625 6.75 -8.273438 6.9375 -8.140625 C 7.125 -8.003906 7.179688 -7.882812 7.109375 -7.78125 C 7.035156 -7.695312 6.9375 -7.566406 6.8125 -7.390625 C 6.695312 -7.210938 6.550781 -7.003906 6.375 -6.765625 L 6.203125 -6.484375 C 5.785156 -5.835938 5.421875 -5.300781 5.109375 -4.875 C 4.804688 -4.457031 4.546875 -4.117188 4.328125 -3.859375 L 4.328125 -3.28125 C 4.316406 -2.96875 4.3125 -2.675781 4.3125 -2.40625 C 4.3125 -2.144531 4.316406 -1.925781 4.328125 -1.75 L 4.328125 -1.140625 C 4.378906 -0.796875 4.378906 -0.570312 4.328125 -0.46875 C 4.285156 -0.28125 4.082031 -0.1875 3.71875 -0.1875 C 3.550781 -0.164062 3.421875 -0.171875 3.328125 -0.203125 C 3.242188 -0.242188 3.203125 -0.300781 3.203125 -0.375 L 3.203125 -3.703125 C 2.890625 -4.191406 2.578125 -4.632812 2.265625 -5.03125 C 1.960938 -5.425781 1.679688 -5.832031 1.421875 -6.25 C 1.234375 -6.53125 1.0625 -6.773438 0.90625 -6.984375 C 0.757812 -7.203125 0.648438 -7.367188 0.578125 -7.484375 C 0.429688 -7.628906 0.507812 -7.800781 0.8125 -8 C 1.238281 -8.25 1.554688 -8.300781 1.765625 -8.15625 Z M 1.765625 -8.15625 "/></g></g></g><g fill="#000000" fill-opacity="1"><g transform="translate(160.71231, 333.904204)"><g/></g></g><g fill="#000000" fill-opacity="1"><g transform="translate(179.3324, 333.904204)"><g><path d="M 1.046875 -1.03125 C 1.023438 -1.5625 1.015625 -2.109375 1.015625 -2.671875 C 1.015625 -3.242188 1.023438 -3.78125 1.046875 -4.28125 C 1.046875 -4.488281 1.046875 -4.71875 1.046875 -4.96875 C 1.054688 -5.226562 1.070312 -5.476562 1.09375 -5.71875 C 1.125 -6.082031 1.140625 -6.398438 1.140625 -6.671875 C 1.140625 -6.953125 1.140625 -7.171875 1.140625 -7.328125 C 1.117188 -7.398438 1.101562 -7.472656 1.09375 -7.546875 C 1.09375 -7.628906 1.078125 -7.71875 1.046875 -7.8125 C 0.992188 -7.9375 0.96875 -8.035156 0.96875 -8.109375 C 0.96875 -8.179688 0.976562 -8.253906 1 -8.328125 C 1.09375 -8.460938 1.253906 -8.484375 1.484375 -8.390625 C 1.484375 -8.390625 1.507812 -8.375 1.5625 -8.34375 C 1.613281 -8.320312 1.671875 -8.296875 1.734375 -8.265625 C 1.796875 -8.234375 1.859375 -8.195312 1.921875 -8.15625 C 1.992188 -8.125 2.050781 -8.109375 2.09375 -8.109375 C 2.4375 -8.078125 2.828125 -8.085938 3.265625 -8.140625 C 3.710938 -8.191406 4.164062 -8.289062 4.625 -8.4375 C 4.863281 -8.476562 5.003906 -8.460938 5.046875 -8.390625 C 5.171875 -8.222656 5.273438 -8.054688 5.359375 -7.890625 C 5.441406 -7.722656 5.5 -7.570312 5.53125 -7.4375 C 5.570312 -7.332031 5.519531 -7.28125 5.375 -7.28125 C 4.851562 -7.28125 4.363281 -7.257812 3.90625 -7.21875 C 3.445312 -7.175781 3.050781 -7.140625 2.71875 -7.109375 C 2.59375 -7.109375 2.488281 -7.0625 2.40625 -6.96875 C 2.332031 -6.882812 2.296875 -6.78125 2.296875 -6.65625 C 2.296875 -6.539062 2.289062 -6.410156 2.28125 -6.265625 C 2.28125 -6.117188 2.269531 -5.953125 2.25 -5.765625 C 2.25 -5.617188 2.242188 -5.476562 2.234375 -5.34375 C 2.234375 -5.207031 2.222656 -5.09375 2.203125 -5 C 2.503906 -4.976562 2.859375 -4.992188 3.265625 -5.046875 C 3.671875 -5.097656 4.078125 -5.191406 4.484375 -5.328125 C 4.578125 -5.359375 4.65625 -5.367188 4.71875 -5.359375 C 4.789062 -5.359375 4.835938 -5.332031 4.859375 -5.28125 C 4.984375 -5.070312 5.078125 -4.894531 5.140625 -4.75 C 5.210938 -4.601562 5.25 -4.476562 5.25 -4.375 C 5.289062 -4.300781 5.257812 -4.238281 5.15625 -4.1875 C 4.695312 -4.207031 4.242188 -4.203125 3.796875 -4.171875 C 3.347656 -4.140625 2.941406 -4.066406 2.578125 -3.953125 C 2.472656 -3.929688 2.394531 -3.875 2.34375 -3.78125 C 2.300781 -3.695312 2.269531 -3.597656 2.25 -3.484375 C 2.25 -3.410156 2.242188 -3.3125 2.234375 -3.1875 C 2.234375 -3.070312 2.222656 -2.945312 2.203125 -2.8125 C 2.171875 -2.550781 2.148438 -2.300781 2.140625 -2.0625 C 2.140625 -1.820312 2.140625 -1.644531 2.140625 -1.53125 L 2.140625 -0.609375 C 2.171875 -0.546875 2.1875 -0.488281 2.1875 -0.4375 C 2.195312 -0.382812 2.203125 -0.347656 2.203125 -0.328125 C 2.148438 -0.253906 2.070312 -0.203125 1.96875 -0.171875 C 1.863281 -0.140625 1.734375 -0.109375 1.578125 -0.078125 C 1.222656 -0.078125 1.046875 -0.113281 1.046875 -0.1875 Z M 1.046875 -1.03125 "/></g></g></g><g fill="#000000" fill-opacity="1"><g transform="translate(192.004328, 333.904204)"><g><path d="M 5 -0.09375 C 3.570312 -0.15625 2.488281 -0.550781 1.75 -1.28125 C 1.007812 -2.007812 0.601562 -3.023438 0.53125 -4.328125 C 0.601562 -5.617188 1.007812 -6.617188 1.75 -7.328125 C 2.5 -8.035156 3.582031 -8.4375 5 -8.53125 C 6.507812 -8.457031 7.644531 -8.078125 8.40625 -7.390625 C 9.175781 -6.710938 9.582031 -5.742188 9.625 -4.484375 C 9.550781 -3.109375 9.128906 -2.046875 8.359375 -1.296875 C 7.585938 -0.554688 6.46875 -0.15625 5 -0.09375 Z M 8.4375 -4.375 C 8.363281 -5.457031 8.054688 -6.289062 7.515625 -6.875 C 6.972656 -7.457031 6.1875 -7.769531 5.15625 -7.8125 C 4.613281 -7.789062 4.132812 -7.707031 3.71875 -7.5625 C 3.300781 -7.425781 2.941406 -7.210938 2.640625 -6.921875 C 2.347656 -6.628906 2.125 -6.257812 1.96875 -5.8125 C 1.8125 -5.375 1.726562 -4.847656 1.71875 -4.234375 C 1.738281 -3.117188 2.035156 -2.296875 2.609375 -1.765625 C 3.191406 -1.234375 4.003906 -0.929688 5.046875 -0.859375 C 6.023438 -0.898438 6.8125 -1.207031 7.40625 -1.78125 C 8 -2.351562 8.34375 -3.21875 8.4375 -4.375 Z M 8.4375 -4.375 "/></g></g></g><g fill="#000000" fill-opacity="1"><g transform="translate(208.820467, 333.904204)"><g><path d="M 5 -0.09375 C 3.570312 -0.15625 2.488281 -0.550781 1.75 -1.28125 C 1.007812 -2.007812 0.601562 -3.023438 0.53125 -4.328125 C 0.601562 -5.617188 1.007812 -6.617188 1.75 -7.328125 C 2.5 -8.035156 3.582031 -8.4375 5 -8.53125 C 6.507812 -8.457031 7.644531 -8.078125 8.40625 -7.390625 C 9.175781 -6.710938 9.582031 -5.742188 9.625 -4.484375 C 9.550781 -3.109375 9.128906 -2.046875 8.359375 -1.296875 C 7.585938 -0.554688 6.46875 -0.15625 5 -0.09375 Z M 8.4375 -4.375 C 8.363281 -5.457031 8.054688 -6.289062 7.515625 -6.875 C 6.972656 -7.457031 6.1875 -7.769531 5.15625 -7.8125 C 4.613281 -7.789062 4.132812 -7.707031 3.71875 -7.5625 C 3.300781 -7.425781 2.941406 -7.210938 2.640625 -6.921875 C 2.347656 -6.628906 2.125 -6.257812 1.96875 -5.8125 C 1.8125 -5.375 1.726562 -4.847656 1.71875 -4.234375 C 1.738281 -3.117188 2.035156 -2.296875 2.609375 -1.765625 C 3.191406 -1.234375 4.003906 -0.929688 5.046875 -0.859375 C 6.023438 -0.898438 6.8125 -1.207031 7.40625 -1.78125 C 8 -2.351562 8.34375 -3.21875 8.4375 -4.375 Z M 8.4375 -4.375 "/></g></g></g><g fill="#000000" fill-opacity="1"><g transform="translate(225.636605, 333.904204)"><g><path d="M 1.765625 -0.234375 C 1.421875 -0.046875 1.25 -0.078125 1.25 -0.328125 C 1.21875 -0.585938 1.195312 -0.929688 1.1875 -1.359375 C 1.1875 -1.796875 1.171875 -2.328125 1.140625 -2.953125 C 1.117188 -3.210938 1.101562 -3.4375 1.09375 -3.625 C 1.09375 -3.820312 1.09375 -3.992188 1.09375 -4.140625 C 1.070312 -4.710938 1.0625 -5.316406 1.0625 -5.953125 C 1.0625 -6.597656 1.070312 -7.21875 1.09375 -7.8125 L 1.09375 -8.234375 C 1.125 -8.304688 1.160156 -8.363281 1.203125 -8.40625 C 1.253906 -8.445312 1.3125 -8.457031 1.375 -8.4375 L 2.140625 -8.28125 C 2.285156 -8.257812 2.390625 -8.222656 2.453125 -8.171875 C 2.523438 -8.128906 2.550781 -8.054688 2.53125 -7.953125 C 2.425781 -7.796875 2.332031 -7.171875 2.25 -6.078125 C 2.175781 -4.984375 2.140625 -3.492188 2.140625 -1.609375 C 2.191406 -1.421875 2.304688 -1.328125 2.484375 -1.328125 C 2.890625 -1.347656 3.3125 -1.382812 3.75 -1.4375 C 4.1875 -1.5 4.570312 -1.570312 4.90625 -1.65625 C 5 -1.6875 5.082031 -1.695312 5.15625 -1.6875 C 5.226562 -1.6875 5.273438 -1.660156 5.296875 -1.609375 C 5.410156 -1.441406 5.503906 -1.285156 5.578125 -1.140625 C 5.648438 -0.992188 5.695312 -0.847656 5.71875 -0.703125 C 5.757812 -0.617188 5.726562 -0.578125 5.625 -0.578125 C 5.050781 -0.578125 4.492188 -0.5625 3.953125 -0.53125 C 3.421875 -0.507812 2.976562 -0.472656 2.625 -0.421875 C 2.570312 -0.421875 2.519531 -0.421875 2.46875 -0.421875 C 2.414062 -0.421875 2.359375 -0.40625 2.296875 -0.375 C 2.148438 -0.351562 2.03125 -0.328125 1.9375 -0.296875 C 1.84375 -0.273438 1.785156 -0.253906 1.765625 -0.234375 Z M 1.765625 -0.234375 "/></g></g></g><g fill="#000000" fill-opacity="1"><g transform="translate(238.308528, 333.904204)"><g><path d="M 1.09375 -0.234375 C 1.101562 -0.398438 1.113281 -0.660156 1.125 -1.015625 C 1.132812 -1.378906 1.140625 -1.804688 1.140625 -2.296875 C 1.140625 -2.785156 1.140625 -3.328125 1.140625 -3.921875 C 1.140625 -4.515625 1.140625 -5.128906 1.140625 -5.765625 C 1.140625 -5.859375 1.140625 -5.960938 1.140625 -6.078125 C 1.140625 -6.203125 1.125 -6.351562 1.09375 -6.53125 C 1.050781 -7.375 1.050781 -7.957031 1.09375 -8.28125 C 1.09375 -8.351562 1.128906 -8.390625 1.203125 -8.390625 C 1.359375 -8.359375 1.503906 -8.328125 1.640625 -8.296875 C 1.785156 -8.273438 1.921875 -8.238281 2.046875 -8.1875 C 2.453125 -8.132812 2.613281 -8.039062 2.53125 -7.90625 C 2.488281 -7.800781 2.441406 -7.550781 2.390625 -7.15625 C 2.335938 -6.757812 2.285156 -6.269531 2.234375 -5.6875 C 2.179688 -5.101562 2.132812 -4.457031 2.09375 -3.75 C 2.0625 -3.050781 2.046875 -2.335938 2.046875 -1.609375 L 2.09375 -1 C 2.09375 -0.90625 2.097656 -0.8125 2.109375 -0.71875 C 2.128906 -0.625 2.140625 -0.539062 2.140625 -0.46875 C 2.117188 -0.394531 2.054688 -0.328125 1.953125 -0.265625 C 1.859375 -0.203125 1.734375 -0.160156 1.578125 -0.140625 C 1.253906 -0.140625 1.09375 -0.171875 1.09375 -0.234375 Z M 1.09375 -0.234375 "/></g></g></g><g fill="#000000" fill-opacity="1"><g transform="translate(248.201391, 333.904204)"><g><path d="M 3.328125 -7.78125 C 2.847656 -7.78125 2.472656 -7.660156 2.203125 -7.421875 C 1.929688 -7.191406 1.785156 -6.863281 1.765625 -6.4375 C 1.753906 -6.25 1.78125 -6.085938 1.84375 -5.953125 C 1.90625 -5.828125 2.003906 -5.707031 2.140625 -5.59375 C 2.273438 -5.488281 2.441406 -5.390625 2.640625 -5.296875 C 2.835938 -5.210938 3.066406 -5.128906 3.328125 -5.046875 C 4.117188 -4.835938 4.703125 -4.535156 5.078125 -4.140625 C 5.460938 -3.753906 5.628906 -3.265625 5.578125 -2.671875 C 5.554688 -1.910156 5.3125 -1.296875 4.84375 -0.828125 C 4.382812 -0.367188 3.722656 -0.125 2.859375 -0.09375 C 2.453125 -0.09375 2.097656 -0.15625 1.796875 -0.28125 C 1.492188 -0.40625 1.257812 -0.550781 1.09375 -0.71875 C 0.757812 -0.957031 0.570312 -1.289062 0.53125 -1.71875 C 0.53125 -2.363281 0.65625 -2.632812 0.90625 -2.53125 C 1.1875 -2.144531 1.488281 -1.832031 1.8125 -1.59375 C 2.144531 -1.351562 2.492188 -1.222656 2.859375 -1.203125 C 3.347656 -1.171875 3.738281 -1.28125 4.03125 -1.53125 C 4.320312 -1.789062 4.503906 -2.125 4.578125 -2.53125 C 4.597656 -2.914062 4.5 -3.226562 4.28125 -3.46875 C 4.0625 -3.707031 3.742188 -3.882812 3.328125 -4 C 2.390625 -4.238281 1.695312 -4.535156 1.25 -4.890625 C 0.8125 -5.242188 0.617188 -5.695312 0.671875 -6.25 C 0.691406 -6.988281 0.929688 -7.546875 1.390625 -7.921875 C 1.847656 -8.304688 2.492188 -8.507812 3.328125 -8.53125 C 3.742188 -8.53125 4.148438 -8.410156 4.546875 -8.171875 C 4.953125 -7.941406 5.3125 -7.648438 5.625 -7.296875 C 5.46875 -6.703125 5.148438 -6.476562 4.671875 -6.625 C 4.503906 -6.9375 4.300781 -7.195312 4.0625 -7.40625 C 3.832031 -7.625 3.585938 -7.75 3.328125 -7.78125 Z M 3.328125 -7.78125 "/></g></g></g><g fill="#000000" fill-opacity="1"><g transform="translate(260.873325, 333.904204)"><g><path d="M 7.203125 -0.328125 C 7.222656 -0.566406 7.234375 -1.039062 7.234375 -1.75 C 7.234375 -2.457031 7.222656 -3.320312 7.203125 -4.34375 C 6.984375 -4.363281 6.769531 -4.382812 6.5625 -4.40625 C 6.363281 -4.425781 6.160156 -4.4375 5.953125 -4.4375 C 5.492188 -4.4375 5.050781 -4.425781 4.625 -4.40625 C 4.207031 -4.382812 3.789062 -4.363281 3.375 -4.34375 C 3.3125 -4.320312 3.238281 -4.304688 3.15625 -4.296875 C 3.082031 -4.285156 3 -4.269531 2.90625 -4.25 C 2.757812 -4.25 2.523438 -4.195312 2.203125 -4.09375 C 2.203125 -3.9375 2.195312 -3.710938 2.1875 -3.421875 C 2.1875 -3.128906 2.171875 -2.816406 2.140625 -2.484375 L 2.140625 -1.578125 C 2.140625 -1.453125 2.140625 -1.347656 2.140625 -1.265625 C 2.148438 -1.179688 2.171875 -1.125 2.203125 -1.09375 L 2.203125 -0.953125 C 2.242188 -0.816406 2.242188 -0.65625 2.203125 -0.46875 C 2.148438 -0.332031 1.957031 -0.238281 1.625 -0.1875 C 1.445312 -0.1875 1.320312 -0.195312 1.25 -0.21875 C 1.175781 -0.238281 1.140625 -0.257812 1.140625 -0.28125 C 1.171875 -0.625 1.171875 -1.257812 1.140625 -2.1875 C 1.109375 -3.113281 1.09375 -4.304688 1.09375 -5.765625 C 1.09375 -5.859375 1.09375 -5.96875 1.09375 -6.09375 C 1.09375 -6.21875 1.078125 -6.363281 1.046875 -6.53125 C 1.023438 -6.945312 1.015625 -7.3125 1.015625 -7.625 C 1.015625 -7.9375 1.023438 -8.175781 1.046875 -8.34375 C 1.046875 -8.40625 1.078125 -8.4375 1.140625 -8.4375 C 1.304688 -8.414062 1.453125 -8.390625 1.578125 -8.359375 C 1.710938 -8.335938 1.835938 -8.300781 1.953125 -8.25 C 2.335938 -8.195312 2.476562 -8.097656 2.375 -7.953125 C 2.351562 -7.953125 2.320312 -7.71875 2.28125 -7.25 C 2.25 -6.78125 2.222656 -6.0625 2.203125 -5.09375 L 3.328125 -5.09375 C 3.398438 -5.09375 3.5 -5.09375 3.625 -5.09375 C 3.75 -5.101562 3.890625 -5.125 4.046875 -5.15625 C 4.523438 -5.175781 4.941406 -5.195312 5.296875 -5.21875 C 5.648438 -5.25 5.9375 -5.273438 6.15625 -5.296875 C 6.175781 -5.296875 6.203125 -5.296875 6.234375 -5.296875 C 6.265625 -5.304688 6.3125 -5.320312 6.375 -5.34375 C 6.550781 -5.363281 6.703125 -5.382812 6.828125 -5.40625 C 6.960938 -5.425781 7.054688 -5.453125 7.109375 -5.484375 L 7.15625 -5.484375 L 7.15625 -5.90625 C 7.15625 -6.125 7.148438 -6.335938 7.140625 -6.546875 C 7.140625 -6.765625 7.128906 -7.03125 7.109375 -7.34375 C 7.078125 -7.507812 7.054688 -7.679688 7.046875 -7.859375 C 7.046875 -8.046875 7.046875 -8.222656 7.046875 -8.390625 C 7.109375 -8.492188 7.160156 -8.523438 7.203125 -8.484375 L 8 -8.34375 C 8.332031 -8.300781 8.476562 -8.203125 8.4375 -8.046875 C 8.363281 -7.835938 8.304688 -7.179688 8.265625 -6.078125 C 8.222656 -4.972656 8.203125 -3.488281 8.203125 -1.625 C 8.203125 -1.4375 8.203125 -1.3125 8.203125 -1.25 C 8.210938 -1.195312 8.226562 -1.144531 8.25 -1.09375 C 8.300781 -0.957031 8.300781 -0.75 8.25 -0.46875 C 8.226562 -0.394531 8.171875 -0.335938 8.078125 -0.296875 C 7.984375 -0.265625 7.882812 -0.25 7.78125 -0.25 C 7.394531 -0.25 7.203125 -0.273438 7.203125 -0.328125 Z M 7.203125 -0.328125 "/></g></g></g></svg>