<svg xmlns="http://www.w3.org/2000/svg" xmlns:xlink="http://www.w3.org/1999/xlink" width="240" zoomAndPan="magnify" viewBox="0 0 375 374.999991" height="240" preserveAspectRatio="xMidYMid meet" version="1.0"><defs><g/><clipPath id="5c4009e6c4"><path d="M 111.238281 26.539062 L 239.875 26.539062 L 239.875 155.171875 L 111.238281 155.171875 Z M 111.238281 26.539062 " clip-rule="nonzero"/></clipPath></defs><g clip-path="url(#5c4009e6c4)"><path fill="#ffffff" d="M 239.875 90.855469 C 239.875 91.910156 239.847656 92.960938 239.796875 94.011719 C 239.746094 95.0625 239.667969 96.113281 239.5625 97.160156 C 239.460938 98.207031 239.332031 99.253906 239.175781 100.292969 C 239.023438 101.335938 238.84375 102.371094 238.636719 103.402344 C 238.433594 104.4375 238.203125 105.464844 237.945312 106.484375 C 237.691406 107.503906 237.410156 108.519531 237.105469 109.527344 C 236.796875 110.535156 236.46875 111.535156 236.113281 112.523438 C 235.757812 113.515625 235.378906 114.496094 234.976562 115.46875 C 234.574219 116.441406 234.148438 117.402344 233.699219 118.355469 C 233.25 119.308594 232.773438 120.246094 232.277344 121.175781 C 231.78125 122.105469 231.265625 123.019531 230.722656 123.921875 C 230.183594 124.824219 229.617188 125.714844 229.035156 126.589844 C 228.449219 127.464844 227.84375 128.324219 227.214844 129.171875 C 226.589844 130.015625 225.941406 130.84375 225.273438 131.660156 C 224.605469 132.472656 223.917969 133.269531 223.210938 134.050781 C 222.503906 134.828125 221.78125 135.589844 221.035156 136.335938 C 220.292969 137.078125 219.527344 137.804688 218.75 138.511719 C 217.96875 139.21875 217.171875 139.90625 216.359375 140.574219 C 215.546875 141.242188 214.714844 141.890625 213.871094 142.515625 C 213.023438 143.144531 212.164062 143.75 211.289062 144.335938 C 210.414062 144.917969 209.523438 145.480469 208.621094 146.023438 C 207.71875 146.5625 206.804688 147.082031 205.875 147.578125 C 204.945312 148.074219 204.007812 148.546875 203.054688 149 C 202.105469 149.449219 201.140625 149.875 200.167969 150.277344 C 199.195312 150.679688 198.214844 151.058594 197.222656 151.414062 C 196.234375 151.769531 195.234375 152.097656 194.226562 152.402344 C 193.21875 152.710938 192.207031 152.992188 191.183594 153.246094 C 190.164062 153.503906 189.136719 153.734375 188.105469 153.9375 C 187.070312 154.144531 186.035156 154.324219 184.992188 154.476562 C 183.953125 154.632812 182.90625 154.761719 181.859375 154.863281 C 180.8125 154.96875 179.761719 155.042969 178.710938 155.097656 C 177.660156 155.148438 176.609375 155.171875 175.554688 155.171875 C 174.503906 155.171875 173.453125 155.148438 172.402344 155.097656 C 171.347656 155.042969 170.300781 154.96875 169.253906 154.863281 C 168.203125 154.761719 167.160156 154.632812 166.117188 154.476562 C 165.078125 154.324219 164.042969 154.144531 163.007812 153.9375 C 161.976562 153.734375 160.949219 153.503906 159.929688 153.246094 C 158.90625 152.992188 157.894531 152.710938 156.886719 152.402344 C 155.878906 152.097656 154.878906 151.769531 153.886719 151.414062 C 152.898438 151.058594 151.914062 150.679688 150.941406 150.277344 C 149.972656 149.875 149.007812 149.449219 148.058594 149 C 147.105469 148.546875 146.164062 148.074219 145.238281 147.578125 C 144.308594 147.082031 143.394531 146.5625 142.492188 146.023438 C 141.585938 145.480469 140.699219 144.917969 139.824219 144.335938 C 138.949219 143.75 138.089844 143.144531 137.242188 142.515625 C 136.398438 141.890625 135.566406 141.242188 134.753906 140.574219 C 133.941406 139.90625 133.144531 139.21875 132.363281 138.511719 C 131.582031 137.804688 130.820312 137.078125 130.078125 136.335938 C 129.332031 135.589844 128.605469 134.828125 127.902344 134.050781 C 127.195312 133.269531 126.507812 132.472656 125.839844 131.660156 C 125.171875 130.84375 124.523438 130.015625 123.894531 129.171875 C 123.269531 128.324219 122.664062 127.464844 122.078125 126.589844 C 121.492188 125.714844 120.929688 124.824219 120.390625 123.921875 C 119.847656 123.019531 119.328125 122.105469 118.832031 121.175781 C 118.335938 120.246094 117.863281 119.308594 117.414062 118.355469 C 116.964844 117.402344 116.539062 116.441406 116.136719 115.46875 C 115.730469 114.496094 115.351562 113.515625 115 112.523438 C 114.644531 111.535156 114.3125 110.535156 114.007812 109.527344 C 113.703125 108.519531 113.421875 107.503906 113.167969 106.484375 C 112.910156 105.464844 112.679688 104.4375 112.476562 103.402344 C 112.269531 102.371094 112.089844 101.335938 111.933594 100.292969 C 111.78125 99.253906 111.652344 98.207031 111.546875 97.160156 C 111.445312 96.113281 111.367188 95.0625 111.316406 94.011719 C 111.265625 92.960938 111.238281 91.910156 111.238281 90.855469 C 111.238281 89.804688 111.265625 88.75 111.316406 87.699219 C 111.367188 86.648438 111.445312 85.601562 111.546875 84.550781 C 111.652344 83.503906 111.78125 82.460938 111.933594 81.417969 C 112.089844 80.378906 112.269531 79.339844 112.476562 78.308594 C 112.679688 77.277344 112.910156 76.25 113.167969 75.230469 C 113.421875 74.207031 113.703125 73.195312 114.007812 72.1875 C 114.3125 71.179688 114.644531 70.179688 115 69.1875 C 115.351562 68.199219 115.730469 67.214844 116.136719 66.242188 C 116.539062 65.269531 116.964844 64.308594 117.414062 63.355469 C 117.863281 62.40625 118.335938 61.464844 118.832031 60.539062 C 119.328125 59.609375 119.847656 58.695312 120.390625 57.789062 C 120.929688 56.886719 121.492188 56 122.078125 55.125 C 122.664062 54.25 123.269531 53.386719 123.894531 52.542969 C 124.523438 51.695312 125.171875 50.867188 125.839844 50.054688 C 126.507812 49.242188 127.195312 48.445312 127.902344 47.664062 C 128.605469 46.882812 129.332031 46.121094 130.078125 45.378906 C 130.820312 44.632812 131.582031 43.90625 132.363281 43.199219 C 133.144531 42.492188 133.941406 41.804688 134.753906 41.136719 C 135.566406 40.472656 136.398438 39.824219 137.242188 39.195312 C 138.089844 38.570312 138.949219 37.964844 139.824219 37.378906 C 140.699219 36.792969 141.585938 36.230469 142.492188 35.691406 C 143.394531 35.148438 144.308594 34.628906 145.238281 34.132812 C 146.164062 33.636719 147.105469 33.164062 148.058594 32.714844 C 149.007812 32.265625 149.972656 31.835938 150.941406 31.433594 C 151.914062 31.03125 152.898438 30.652344 153.886719 30.300781 C 154.878906 29.945312 155.878906 29.613281 156.886719 29.308594 C 157.894531 29.003906 158.90625 28.722656 159.929688 28.464844 C 160.949219 28.210938 161.976562 27.980469 163.007812 27.773438 C 164.042969 27.570312 165.078125 27.390625 166.117188 27.234375 C 167.160156 27.082031 168.203125 26.953125 169.253906 26.847656 C 170.300781 26.746094 171.347656 26.667969 172.402344 26.617188 C 173.453125 26.566406 174.503906 26.539062 175.554688 26.539062 C 176.609375 26.539062 177.660156 26.566406 178.710938 26.617188 C 179.761719 26.667969 180.8125 26.746094 181.859375 26.847656 C 182.90625 26.953125 183.953125 27.082031 184.992188 27.234375 C 186.035156 27.390625 187.070312 27.570312 188.105469 27.773438 C 189.136719 27.980469 190.164062 28.210938 191.183594 28.464844 C 192.207031 28.722656 193.21875 29.003906 194.226562 29.308594 C 195.234375 29.613281 196.234375 29.945312 197.222656 30.300781 C 198.214844 30.652344 199.195312 31.03125 200.167969 31.433594 C 201.140625 31.835938 202.105469 32.265625 203.054688 32.714844 C 204.007812 33.164062 204.945312 33.636719 205.875 34.132812 C 206.804688 34.628906 207.71875 35.148438 208.621094 35.691406 C 209.523438 36.230469 210.414062 36.792969 211.289062 37.378906 C 212.164062 37.964844 213.023438 38.570312 213.871094 39.195312 C 214.714844 39.824219 215.546875 40.472656 216.359375 41.136719 C 217.171875 41.804688 217.96875 42.492188 218.75 43.199219 C 219.527344 43.90625 220.292969 44.632812 221.035156 45.378906 C 221.78125 46.121094 222.503906 46.882812 223.210938 47.664062 C 223.917969 48.445312 224.605469 49.242188 225.273438 50.054688 C 225.941406 50.867188 226.589844 51.695312 227.214844 52.542969 C 227.84375 53.386719 228.449219 54.25 229.035156 55.125 C 229.617188 56 230.183594 56.886719 230.722656 57.789062 C 231.265625 58.695312 231.78125 59.609375 232.277344 60.539062 C 232.773438 61.464844 233.25 62.40625 233.699219 63.355469 C 234.148438 64.308594 234.574219 65.269531 234.976562 66.242188 C 235.378906 67.214844 235.757812 68.199219 236.113281 69.1875 C 236.46875 70.179688 236.796875 71.179688 237.105469 72.1875 C 237.410156 73.195312 237.691406 74.207031 237.945312 75.230469 C 238.203125 76.25 238.433594 77.277344 238.636719 78.308594 C 238.84375 79.339844 239.023438 80.378906 239.175781 81.417969 C 239.332031 82.460938 239.460938 83.503906 239.5625 84.550781 C 239.667969 85.601562 239.746094 86.648438 239.796875 87.699219 C 239.847656 88.75 239.875 89.804688 239.875 90.855469 Z M 239.875 90.855469 " fill-opacity="1" fill-rule="nonzero"/></g><path fill="#231f1f" d="M 152.324219 103.617188 C 132.09375 103.617188 128.5625 80.867188 128.5625 80.867188 C 130.582031 76.171875 132.964844 77.761719 135.660156 73.488281 C 144.027344 60.214844 147.589844 54.65625 158.933594 54.816406 L 169.695312 41.003906 C 170.660156 41.96875 176.660156 56.460938 178.28125 60.394531 C 198.796875 76.164062 197.585938 124.6875 195.878906 146.617188 C 196.9375 146.378906 197.988281 146.101562 199.027344 145.808594 C 202.800781 144.734375 205.144531 143.910156 208.132812 142.390625 C 209.984375 141.445312 211.8125 140.410156 213.484375 139.164062 C 213.382812 139.21875 214.742188 138.082031 215.027344 137.800781 C 215.328125 137.511719 216.71875 135.96875 216.394531 136.414062 C 218.632812 133.332031 219.320312 130.949219 218.25 127.265625 C 216.214844 120.285156 210.734375 114.148438 207.074219 107.9375 C 203.910156 102.578125 200.582031 96.773438 199.292969 90.613281 C 196.484375 77.171875 204.074219 66.53125 213.039062 57.296875 C 217.933594 52.253906 225.566406 59.996094 220.691406 65.015625 C 216.328125 69.511719 211.3125 74.714844 209.828125 81.023438 C 208.722656 85.75 210.167969 90.476562 212.296875 94.820312 C 215.910156 102.203125 220.582031 108.976562 224.886719 115.957031 C 227.527344 120.234375 229.800781 125.492188 229.582031 130.664062 C 237.570312 119.773438 242.289062 106.335938 242.289062 91.796875 C 242.289062 55.457031 212.832031 25.996094 176.496094 25.996094 C 140.15625 25.996094 110.695312 55.457031 110.695312 91.796875 C 110.695312 115.066406 122.78125 135.519531 141.015625 147.214844 C 145.992188 122.820312 165.679688 103.617188 152.324219 103.617188 " fill-opacity="1" fill-rule="nonzero"/><path fill="#231f1f" d="M 175.707031 157.578125 C 175.96875 157.582031 176.230469 157.589844 176.496094 157.589844 C 176.757812 157.589844 177.019531 157.582031 177.28125 157.578125 L 175.707031 157.578125 " fill-opacity="1" fill-rule="nonzero"/><g fill="#231f1f" fill-opacity="1"><g transform="translate(22.265862, 253.333844)"><g><path d="M 0.820312 -3.101562 C 1.878906 -0.28125 4 1.140625 7.0625 1.140625 C 10.523438 1.140625 12.625 -0.761719 12.625 -3.222656 C 12.625 -5.28125 10.726562 -6.683594 7.222656 -7.882812 C 5.164062 -8.625 3.78125 -9.203125 3.78125 -10.464844 C 3.78125 -11.625 5.023438 -12.585938 6.722656 -12.585938 C 8.242188 -12.585938 9.402344 -11.90625 10.023438 -10.542969 L 12.464844 -10.882812 C 11.664062 -13.207031 9.644531 -14.566406 6.824219 -14.566406 C 3.882812 -14.566406 1.300781 -12.925781 1.300781 -10.265625 C 1.300781 -8.203125 3.121094 -6.984375 6.542969 -5.84375 C 7.964844 -5.324219 10.125 -4.441406 10.125 -3 C 10.125 -1.980469 9.125 -0.859375 7.125 -0.859375 C 5.441406 -0.859375 4.121094 -1.601562 3.320312 -3.460938 Z M 0.820312 -3.101562 "/></g></g></g><g fill="#231f1f" fill-opacity="1"><g transform="translate(38.601775, 253.333844)"><g><path d="M 0.199219 -10.0625 L 0.199219 -8.285156 L 2.101562 -8.285156 L 2.101562 -1.179688 C 2.101562 0.5 3.222656 1.039062 4.722656 1.039062 C 5.441406 1.039062 6.121094 0.980469 6.761719 0.761719 L 6.761719 -1 C 6.460938 -0.859375 6.082031 -0.78125 5.703125 -0.78125 C 4.84375 -0.78125 4.28125 -0.980469 4.28125 -1.839844 L 4.28125 -8.285156 L 6.804688 -8.285156 L 6.804688 -10.0625 L 4.28125 -10.0625 L 4.28125 -13.085938 L 2.101562 -13.085938 L 2.101562 -10.0625 Z M 0.199219 -10.0625 "/></g></g></g><g fill="#231f1f" fill-opacity="1"><g transform="translate(48.480256, 253.333844)"><g><path d="M 0.902344 -1.699219 C 0.902344 0.261719 2.722656 1.082031 4.480469 1.082031 C 6.101562 1.082031 7.582031 0.441406 8.5625 -0.519531 C 8.5625 -0.460938 8.664062 0.160156 8.703125 0.199219 C 8.925781 0.742188 9.664062 0.960938 10.285156 0.960938 C 10.746094 0.960938 11.285156 0.921875 11.785156 0.78125 L 11.785156 -0.621094 C 10.925781 -0.519531 10.644531 -0.660156 10.644531 -1.199219 L 10.644531 -6.84375 C 10.644531 -9.105469 9.144531 -10.523438 6.082031 -10.523438 C 3.601562 -10.523438 1.921875 -9.304688 1.21875 -7.382812 L 3.242188 -7.101562 C 3.800781 -8.363281 4.882812 -8.722656 5.984375 -8.722656 C 7.785156 -8.722656 8.464844 -7.84375 8.464844 -6.882812 L 8.464844 -6.363281 C 3.660156 -5.78125 0.902344 -4.523438 0.902344 -1.699219 Z M 3.101562 -1.960938 C 3.101562 -3.621094 5.640625 -4.242188 8.464844 -4.5625 C 8.464844 -4.101562 8.445312 -2.542969 8.445312 -2.0625 C 7.503906 -1.261719 6.324219 -0.699219 4.960938 -0.699219 C 3.761719 -0.699219 3.101562 -1.082031 3.101562 -1.960938 Z M 3.101562 -1.960938 "/></g></g></g><g fill="#231f1f" fill-opacity="1"><g transform="translate(63.356756, 253.333844)"><g><path d="M 0.121094 -10.222656 L 4.703125 0.582031 L 4.023438 2.339844 C 3.800781 2.960938 3.222656 3.160156 2.640625 3.160156 C 2.320312 3.160156 1.980469 3.121094 1.722656 3.042969 L 1.722656 4.921875 C 2.28125 5.0625 2.679688 5.0625 3.222656 5.0625 C 4.140625 5.0625 5.183594 4.800781 5.761719 3.421875 L 11.246094 -10.222656 L 8.902344 -10.222656 L 5.761719 -2.140625 L 2.460938 -10.222656 Z M 0.121094 -10.222656 "/></g></g></g><g fill="#231f1f" fill-opacity="1"><g transform="translate(77.393587, 253.333844)"><g/></g></g><g fill="#231f1f" fill-opacity="1"><g transform="translate(86.87221, 253.333844)"><g><path d="M 1.660156 -14.226562 L 1.660156 0.800781 L 3.902344 0.800781 L 3.902344 -5.941406 L 11.824219 -5.941406 L 11.824219 0.800781 L 14.066406 0.800781 L 14.066406 -14.226562 L 11.824219 -14.226562 L 11.824219 -7.921875 L 3.902344 -7.921875 L 3.902344 -14.226562 Z M 1.660156 -14.226562 "/></g></g></g><g fill="#231f1f" fill-opacity="1"><g transform="translate(105.247333, 253.333844)"><g><path d="M 1.300781 -10.222656 L 1.300781 -2.820312 C 1.300781 -0.238281 2.660156 1.140625 5.203125 1.140625 C 6.484375 1.140625 7.742188 0.5 8.765625 -0.539062 L 8.765625 0.800781 L 10.964844 0.800781 L 10.964844 -10.222656 L 8.765625 -10.222656 L 8.765625 -1.980469 C 7.945312 -1.082031 7.023438 -0.640625 5.960938 -0.640625 C 4.503906 -0.640625 3.5 -1.582031 3.5 -3.242188 L 3.5 -10.222656 Z M 1.300781 -10.222656 "/></g></g></g><g fill="#231f1f" fill-opacity="1"><g transform="translate(120.183808, 253.333844)"><g><path d="M 1.300781 -10.222656 L 1.300781 0.800781 L 3.5 0.800781 L 3.5 -7.382812 C 4.382812 -8.285156 5.34375 -8.722656 6.382812 -8.722656 C 7.882812 -8.722656 8.765625 -7.785156 8.765625 -6.121094 L 8.765625 0.800781 L 10.964844 0.800781 L 10.964844 -6.542969 C 10.964844 -9.125 9.683594 -10.523438 7.0625 -10.523438 C 5.78125 -10.523438 4.523438 -9.90625 3.5 -8.785156 L 3.5 -10.222656 Z M 1.300781 -10.222656 "/></g></g></g><g fill="#231f1f" fill-opacity="1"><g transform="translate(135.120284, 253.333844)"><g><path d="M 0.960938 -4.742188 C 0.960938 -1.058594 3.140625 0.941406 5.800781 0.941406 C 6.921875 0.941406 8.125 0.5 9.242188 -0.621094 L 9.242188 -0.0195312 C 9.242188 2.160156 8.003906 3.28125 6.003906 3.28125 C 4.800781 3.28125 3.742188 2.859375 3.203125 1.761719 L 1.199219 2.101562 C 1.941406 4.121094 3.78125 5.0625 5.921875 5.0625 C 9.945312 5.0625 11.425781 2.882812 11.425781 -0.261719 L 11.425781 -10.222656 L 9.242188 -10.222656 L 9.242188 -8.945312 C 8.125 -10.144531 7.003906 -10.523438 5.722656 -10.523438 C 3.101562 -10.523438 0.960938 -8.421875 0.960938 -4.742188 Z M 6.203125 -0.941406 C 4.261719 -0.941406 3.160156 -2.582031 3.160156 -4.742188 C 3.160156 -7.0625 4.320312 -8.625 6.203125 -8.625 C 7.402344 -8.625 8.445312 -7.964844 9.242188 -6.984375 L 9.242188 -2.460938 C 8.464844 -1.601562 7.382812 -0.941406 6.203125 -0.941406 Z M 6.203125 -0.941406 "/></g></g></g><g fill="#231f1f" fill-opacity="1"><g transform="translate(150.516576, 253.333844)"><g><path d="M 1.300781 -10.222656 L 1.300781 0.800781 L 3.480469 0.800781 L 3.480469 -6.441406 C 4.601562 -8.042969 6.402344 -8.664062 7.523438 -8.664062 L 7.523438 -10.484375 C 6.023438 -10.484375 4.28125 -9.34375 3.480469 -8.125 L 3.480469 -10.222656 Z M 1.300781 -10.222656 "/></g></g></g><g fill="#231f1f" fill-opacity="1"><g transform="translate(160.854871, 253.333844)"><g><path d="M 0.121094 -10.222656 L 4.703125 0.582031 L 4.023438 2.339844 C 3.800781 2.960938 3.222656 3.160156 2.640625 3.160156 C 2.320312 3.160156 1.980469 3.121094 1.722656 3.042969 L 1.722656 4.921875 C 2.28125 5.0625 2.679688 5.0625 3.222656 5.0625 C 4.140625 5.0625 5.183594 4.800781 5.761719 3.421875 L 11.246094 -10.222656 L 8.902344 -10.222656 L 5.761719 -2.140625 L 2.460938 -10.222656 Z M 0.121094 -10.222656 "/></g></g></g><g fill="#231f1f" fill-opacity="1"><g transform="translate(174.891701, 253.333844)"><g><path d="M 1.421875 4.082031 C 2.601562 3.703125 4.082031 2.640625 4.082031 0.699219 L 4.082031 -2.339844 L 1.480469 -2.339844 L 1.480469 0.800781 L 2.800781 0.800781 C 2.800781 1.921875 2.121094 2.742188 1.421875 3.042969 Z M 1.421875 4.082031 "/></g></g></g><g fill="#231f1f" fill-opacity="1"><g transform="translate(183.110836, 253.333844)"><g/></g></g><g fill="#231f1f" fill-opacity="1"><g transform="translate(192.589459, 253.333844)"><g><path d="M 0.820312 -3.101562 C 1.878906 -0.28125 4 1.140625 7.0625 1.140625 C 10.523438 1.140625 12.625 -0.761719 12.625 -3.222656 C 12.625 -5.28125 10.726562 -6.683594 7.222656 -7.882812 C 5.164062 -8.625 3.78125 -9.203125 3.78125 -10.464844 C 3.78125 -11.625 5.023438 -12.585938 6.722656 -12.585938 C 8.242188 -12.585938 9.402344 -11.90625 10.023438 -10.542969 L 12.464844 -10.882812 C 11.664062 -13.207031 9.644531 -14.566406 6.824219 -14.566406 C 3.882812 -14.566406 1.300781 -12.925781 1.300781 -10.265625 C 1.300781 -8.203125 3.121094 -6.984375 6.542969 -5.84375 C 7.964844 -5.324219 10.125 -4.441406 10.125 -3 C 10.125 -1.980469 9.125 -0.859375 7.125 -0.859375 C 5.441406 -0.859375 4.121094 -1.601562 3.320312 -3.460938 Z M 0.820312 -3.101562 "/></g></g></g><g fill="#231f1f" fill-opacity="1"><g transform="translate(208.92538, 253.333844)"><g><path d="M 0.199219 -10.0625 L 0.199219 -8.285156 L 2.101562 -8.285156 L 2.101562 -1.179688 C 2.101562 0.5 3.222656 1.039062 4.722656 1.039062 C 5.441406 1.039062 6.121094 0.980469 6.761719 0.761719 L 6.761719 -1 C 6.460938 -0.859375 6.082031 -0.78125 5.703125 -0.78125 C 4.84375 -0.78125 4.28125 -0.980469 4.28125 -1.839844 L 4.28125 -8.285156 L 6.804688 -8.285156 L 6.804688 -10.0625 L 4.28125 -10.0625 L 4.28125 -13.085938 L 2.101562 -13.085938 L 2.101562 -10.0625 Z M 0.199219 -10.0625 "/></g></g></g><g fill="#231f1f" fill-opacity="1"><g transform="translate(218.803868, 253.333844)"><g><path d="M 0.902344 -1.699219 C 0.902344 0.261719 2.722656 1.082031 4.480469 1.082031 C 6.101562 1.082031 7.582031 0.441406 8.5625 -0.519531 C 8.5625 -0.460938 8.664062 0.160156 8.703125 0.199219 C 8.925781 0.742188 9.664062 0.960938 10.285156 0.960938 C 10.746094 0.960938 11.285156 0.921875 11.785156 0.78125 L 11.785156 -0.621094 C 10.925781 -0.519531 10.644531 -0.660156 10.644531 -1.199219 L 10.644531 -6.84375 C 10.644531 -9.105469 9.144531 -10.523438 6.082031 -10.523438 C 3.601562 -10.523438 1.921875 -9.304688 1.21875 -7.382812 L 3.242188 -7.101562 C 3.800781 -8.363281 4.882812 -8.722656 5.984375 -8.722656 C 7.785156 -8.722656 8.464844 -7.84375 8.464844 -6.882812 L 8.464844 -6.363281 C 3.660156 -5.78125 0.902344 -4.523438 0.902344 -1.699219 Z M 3.101562 -1.960938 C 3.101562 -3.621094 5.640625 -4.242188 8.464844 -4.5625 C 8.464844 -4.101562 8.445312 -2.542969 8.445312 -2.0625 C 7.503906 -1.261719 6.324219 -0.699219 4.960938 -0.699219 C 3.761719 -0.699219 3.101562 -1.082031 3.101562 -1.960938 Z M 3.101562 -1.960938 "/></g></g></g><g fill="#231f1f" fill-opacity="1"><g transform="translate(233.680373, 253.333844)"><g><path d="M 0.121094 -10.222656 L 4.703125 0.582031 L 4.023438 2.339844 C 3.800781 2.960938 3.222656 3.160156 2.640625 3.160156 C 2.320312 3.160156 1.980469 3.121094 1.722656 3.042969 L 1.722656 4.921875 C 2.28125 5.0625 2.679688 5.0625 3.222656 5.0625 C 4.140625 5.0625 5.183594 4.800781 5.761719 3.421875 L 11.246094 -10.222656 L 8.902344 -10.222656 L 5.761719 -2.140625 L 2.460938 -10.222656 Z M 0.121094 -10.222656 "/></g></g></g><g fill="#231f1f" fill-opacity="1"><g transform="translate(247.717213, 253.333844)"><g/></g></g><g fill="#231f1f" fill-opacity="1"><g transform="translate(257.195846, 253.333844)"><g><path d="M 1.660156 -14.226562 L 1.660156 0.800781 L 3.902344 0.800781 L 3.902344 -5.601562 L 11.746094 -5.601562 L 11.746094 -7.582031 L 3.902344 -7.582031 L 3.902344 -12.226562 L 12.585938 -12.226562 L 12.585938 -14.226562 Z M 1.660156 -14.226562 "/></g></g></g><g fill="#231f1f" fill-opacity="1"><g transform="translate(273.371832, 253.333844)"><g><path d="M 0.878906 -4.722656 C 0.878906 -1.601562 2.660156 1.140625 6.261719 1.140625 C 9.882812 1.140625 11.625 -1.539062 11.625 -4.722656 C 11.625 -7.824219 9.882812 -10.523438 6.261719 -10.523438 C 2.660156 -10.523438 0.878906 -7.742188 0.878906 -4.722656 Z M 3.082031 -4.722656 C 3.082031 -7.0625 4.34375 -8.625 6.261719 -8.625 C 8.203125 -8.625 9.425781 -7.144531 9.425781 -4.722656 C 9.425781 -2.300781 8.363281 -0.742188 6.261719 -0.742188 C 4.183594 -0.742188 3.082031 -2.339844 3.082031 -4.722656 Z M 3.082031 -4.722656 "/></g></g></g><g fill="#231f1f" fill-opacity="1"><g transform="translate(288.548219, 253.333844)"><g><path d="M 0.878906 -4.722656 C 0.878906 -1.601562 2.660156 1.140625 6.261719 1.140625 C 9.882812 1.140625 11.625 -1.539062 11.625 -4.722656 C 11.625 -7.824219 9.882812 -10.523438 6.261719 -10.523438 C 2.660156 -10.523438 0.878906 -7.742188 0.878906 -4.722656 Z M 3.082031 -4.722656 C 3.082031 -7.0625 4.34375 -8.625 6.261719 -8.625 C 8.203125 -8.625 9.425781 -7.144531 9.425781 -4.722656 C 9.425781 -2.300781 8.363281 -0.742188 6.261719 -0.742188 C 4.183594 -0.742188 3.082031 -2.339844 3.082031 -4.722656 Z M 3.082031 -4.722656 "/></g></g></g><g fill="#231f1f" fill-opacity="1"><g transform="translate(303.724606, 253.333844)"><g><path d="M 1.300781 -14.226562 L 1.300781 0.800781 L 3.5 0.800781 L 3.5 -14.226562 Z M 1.300781 -14.226562 "/></g></g></g><g fill="#231f1f" fill-opacity="1"><g transform="translate(311.20404, 253.333844)"><g><path d="M 1.300781 -10.222656 L 1.300781 0.800781 L 3.5 0.800781 L 3.5 -10.222656 Z M 1.300781 -14.226562 L 1.300781 -11.863281 L 3.5 -11.863281 L 3.5 -14.226562 Z M 1.300781 -14.226562 "/></g></g></g><g fill="#231f1f" fill-opacity="1"><g transform="translate(318.683473, 253.333844)"><g><path d="M 0.699219 -1.742188 C 1.539062 0.378906 3.621094 1.140625 5.523438 1.140625 C 8.242188 1.140625 10.0625 -0.078125 10.0625 -2.121094 C 10.0625 -3.960938 8.5625 -4.84375 5.78125 -5.582031 C 4.761719 -5.902344 3.261719 -6.363281 3.261719 -7.324219 C 3.261719 -8.125 4.082031 -8.824219 5.460938 -8.824219 C 6.5625 -8.824219 7.34375 -8.382812 7.804688 -7.484375 L 9.882812 -7.84375 C 9.105469 -9.605469 7.683594 -10.523438 5.460938 -10.523438 C 2.78125 -10.523438 1.058594 -9.144531 1.058594 -7.421875 C 1.058594 -5.761719 2.382812 -4.84375 5.042969 -4.042969 C 6.5625 -3.5 7.761719 -3.082031 7.761719 -2.101562 C 7.761719 -1.242188 6.863281 -0.539062 5.582031 -0.539062 C 4.382812 -0.539062 3.382812 -0.902344 2.761719 -2.179688 Z M 0.699219 -1.742188 "/></g></g></g><g fill="#231f1f" fill-opacity="1"><g transform="translate(332.260497, 253.333844)"><g><path d="M 1.300781 -14.226562 L 1.300781 0.800781 L 3.5 0.800781 L 3.5 -7.382812 C 4.382812 -8.285156 5.34375 -8.722656 6.402344 -8.722656 C 7.863281 -8.722656 8.765625 -7.785156 8.765625 -6.121094 L 8.765625 0.800781 L 10.964844 0.800781 L 10.964844 -6.542969 C 10.964844 -9.125 9.625 -10.523438 7.0625 -10.523438 C 5.78125 -10.523438 4.523438 -9.90625 3.5 -8.785156 L 3.5 -14.226562 Z M 1.300781 -14.226562 "/></g></g></g><g fill="#231f1f" fill-opacity="1"><g transform="translate(347.196963, 253.333844)"><g><path d="M 1.460938 -2.339844 L 1.460938 0.800781 L 4.0625 0.800781 L 4.0625 -2.339844 Z M 1.460938 -2.339844 "/></g></g></g><g fill="#231f1f" fill-opacity="1"><g transform="translate(108.28021, 219.87114)"><g><path d="M 21.125 -25.894531 L 19.273438 -25.894531 L 19.273438 -19.859375 L 16.804688 -19.859375 L 16.804688 -28.671875 L 14.851562 -28.671875 L 14.851562 -19.859375 L 12.242188 -19.859375 L 12.242188 -25.894531 L 10.425781 -25.894531 L 10.425781 -17.765625 L 21.125 -17.765625 Z M 6.894531 -28.707031 C 5.660156 -26.441406 3.257812 -23.664062 1.0625 -21.914062 C 1.476562 -21.4375 2.160156 -20.507812 2.46875 -19.996094 C 4.871094 -22.019531 7.546875 -25.105469 9.226562 -27.816406 Z M 7.613281 -21.882812 C 5.933594 -18.28125 3.257812 -14.644531 0.6875 -12.175781 C 1.132812 -11.695312 1.921875 -10.460938 2.195312 -9.945312 C 3.15625 -10.976562 4.183594 -12.140625 5.144531 -13.480469 L 5.144531 2.574219 L 7.476562 2.574219 L 7.476562 -16.839844 C 8.335938 -18.246094 9.15625 -19.6875 9.84375 -21.09375 Z M 19.996094 -4.835938 L 19.996094 -10.90625 L 11.25 -10.90625 L 11.25 -6.929688 C 11.25 -4.5625 10.90625 -1.476562 8.710938 0.824219 C 9.15625 1.132812 10.050781 2.023438 10.359375 2.539062 C 12.894531 -0.171875 13.480469 -4.046875 13.480469 -6.894531 L 13.480469 -8.882812 L 17.902344 -8.882812 L 17.902344 -4.90625 C 17.902344 -3.566406 17.355469 -3.019531 16.976562 -2.777344 C 17.285156 -2.261719 17.765625 -1.234375 17.902344 -0.652344 C 18.382812 -1.269531 19.136719 -1.886719 23.253906 -4.664062 C 23.046875 -5.042969 22.738281 -5.898438 22.601562 -6.480469 Z M 29.359375 -19.445312 C 28.914062 -15.226562 28.15625 -11.625 26.957031 -8.472656 C 25.960938 -11.386719 25.3125 -14.679688 24.867188 -18.074219 C 24.96875 -18.519531 25.105469 -18.964844 25.207031 -19.445312 Z M 32.789062 -19.445312 L 32.789062 -21.640625 L 25.722656 -21.640625 C 26.132812 -23.769531 26.476562 -25.996094 26.75 -28.296875 L 24.417969 -28.671875 C 23.871094 -23.320312 22.945312 -18.175781 21.125 -14.578125 L 21.125 -15.261719 L 9.773438 -15.261719 L 9.773438 -13.066406 L 21.125 -13.066406 L 21.125 -13.480469 C 21.605469 -12.964844 22.121094 -12.3125 22.394531 -11.96875 C 22.839844 -12.65625 23.21875 -13.480469 23.597656 -14.300781 C 24.109375 -11.214844 24.796875 -8.367188 25.722656 -5.796875 C 24.246094 -3.085938 22.257812 -0.859375 19.550781 0.824219 C 20.03125 1.234375 20.75 2.230469 21.023438 2.710938 C 23.460938 1.0625 25.3125 -0.925781 26.820312 -3.292969 C 28.019531 -0.824219 29.53125 1.167969 31.449219 2.503906 C 31.828125 1.851562 32.582031 0.960938 33.097656 0.515625 C 31.003906 -0.753906 29.359375 -2.949219 28.125 -5.625 C 29.941406 -9.398438 30.96875 -13.992188 31.65625 -19.445312 Z M 32.789062 -19.445312 "/></g></g></g><g fill="#231f1f" fill-opacity="1"><g transform="translate(142.672052, 219.87114)"><g><path d="M 20.476562 -23.628906 C 19.617188 -22.328125 18.554688 -20.886719 17.457031 -19.789062 L 7.855469 -19.789062 C 9.15625 -21.023438 10.324219 -22.328125 11.386719 -23.628906 Z M 26.476562 -13.238281 L 18.417969 -13.238281 L 18.417969 -17.628906 L 26.476562 -17.628906 Z M 26.476562 -6.722656 L 18.417969 -6.722656 L 18.417969 -11.179688 L 26.476562 -11.179688 Z M 8.265625 -13.238281 L 8.265625 -17.628906 L 15.949219 -17.628906 L 15.949219 -13.238281 Z M 15.949219 -11.179688 L 15.949219 -6.722656 L 8.265625 -6.722656 L 8.265625 -11.179688 Z M 5.796875 -4.527344 L 29.015625 -4.527344 L 29.015625 -19.789062 L 20.578125 -19.789062 C 21.914062 -21.367188 23.289062 -23.253906 24.144531 -24.933594 L 22.429688 -26.03125 L 22.019531 -25.894531 L 13.03125 -25.894531 C 13.617188 -26.71875 14.0625 -27.507812 14.542969 -28.296875 L 11.765625 -28.808594 C 10.015625 -25.515625 6.621094 -21.367188 1.953125 -18.382812 C 2.539062 -17.9375 3.328125 -16.976562 3.667969 -16.394531 C 4.425781 -16.910156 5.109375 -17.421875 5.796875 -17.972656 Z M 2.230469 -1.335938 L 2.230469 1.097656 L 32.136719 1.097656 L 32.136719 -1.335938 Z M 2.230469 -1.335938 "/></g></g></g><g fill="#231f1f" fill-opacity="1"><g transform="translate(177.063893, 219.87114)"><g><path d="M 24.453125 -21.640625 C 23.320312 -23.082031 20.921875 -25.035156 18.863281 -26.339844 L 17.25 -24.867188 C 19.273438 -23.460938 21.640625 -21.4375 22.703125 -19.996094 Z M 23.628906 -12.621094 C 22.363281 -14.097656 19.6875 -16.121094 17.492188 -17.457031 L 15.914062 -15.949219 C 18.074219 -14.578125 20.714844 -12.449219 21.949219 -10.941406 Z M 14.609375 -10.1875 C 13.890625 -11.113281 10.941406 -14.886719 9.878906 -16.085938 L 9.878906 -16.703125 L 14.917969 -16.703125 L 14.917969 -19.101562 L 9.878906 -19.101562 L 9.878906 -24.832031 C 11.523438 -25.207031 13.101562 -25.6875 14.371094 -26.203125 L 12.828125 -28.226562 C 10.253906 -27.09375 5.761719 -26.101562 1.921875 -25.484375 C 2.195312 -24.933594 2.539062 -24.042969 2.675781 -23.492188 C 4.183594 -23.699219 5.796875 -23.972656 7.375 -24.28125 L 7.375 -19.101562 L 1.613281 -19.101562 L 1.613281 -16.703125 L 7.03125 -16.703125 C 5.691406 -12.757812 3.292969 -8.367188 1.132812 -5.933594 C 1.542969 -5.351562 2.160156 -4.320312 2.402344 -3.636719 C 4.183594 -5.761719 5.96875 -9.15625 7.375 -12.585938 L 7.375 2.574219 L 9.878906 2.574219 L 9.878906 -13.308594 C 11.042969 -11.558594 12.484375 -9.328125 13.066406 -8.195312 Z M 32.960938 -7.097656 L 32.582031 -9.433594 L 28.570312 -8.8125 L 28.570312 -28.707031 L 26.066406 -28.707031 L 26.066406 -8.402344 L 14.472656 -6.550781 L 14.886719 -4.117188 L 26.066406 -5.96875 L 26.066406 2.574219 L 28.570312 2.574219 L 28.570312 -6.378906 Z M 32.960938 -7.097656 "/></g></g></g><g fill="#231f1f" fill-opacity="1"><g transform="translate(211.455734, 219.87114)"><g><path d="M 12.519531 -13.71875 C 11.25 -13.339844 9.945312 -12.964844 8.710938 -12.621094 L 8.710938 -19.410156 L 12.519531 -19.410156 L 12.519531 -21.8125 L 8.710938 -21.8125 L 8.710938 -28.671875 L 6.207031 -28.671875 L 6.207031 -21.8125 L 1.816406 -21.8125 L 1.816406 -19.410156 L 6.207031 -19.410156 L 6.207031 -11.933594 C 4.390625 -11.421875 2.742188 -11.007812 1.371094 -10.699219 L 2.09375 -8.195312 L 6.207031 -9.398438 L 6.207031 -0.445312 C 6.207031 0.0351562 6.035156 0.207031 5.523438 0.207031 C 5.109375 0.238281 3.636719 0.238281 1.988281 0.207031 C 2.332031 0.890625 2.710938 1.886719 2.8125 2.539062 C 5.144531 2.574219 6.585938 2.503906 7.441406 2.09375 C 8.335938 1.679688 8.710938 0.996094 8.710938 -0.445312 L 8.710938 -10.152344 C 10.050781 -10.5625 11.457031 -10.976562 12.828125 -11.386719 Z M 27.78125 -13.480469 C 26.546875 -10.359375 24.625 -7.71875 22.257812 -5.589844 C 20.097656 -7.785156 18.382812 -10.496094 17.21875 -13.480469 Z M 29.390625 -15.949219 L 28.980469 -15.84375 L 23.527344 -15.84375 L 23.527344 -20.957031 L 31.726562 -20.957031 L 31.726562 -23.320312 L 23.527344 -23.320312 L 23.527344 -28.707031 L 21.023438 -28.707031 L 21.023438 -23.320312 L 13 -23.320312 L 13 -20.957031 L 21.023438 -20.957031 L 21.023438 -15.84375 L 13.683594 -15.84375 L 13.683594 -13.480469 L 14.816406 -13.480469 L 14.714844 -13.445312 C 16.050781 -9.773438 17.9375 -6.621094 20.339844 -4.046875 C 17.558594 -2.023438 14.371094 -0.582031 11.042969 0.308594 C 11.523438 0.859375 12.140625 1.921875 12.414062 2.605469 C 15.914062 1.507812 19.242188 -0.0703125 22.15625 -2.296875 C 24.695312 -0.0703125 27.746094 1.578125 31.3125 2.675781 C 31.691406 1.988281 32.410156 0.996094 32.960938 0.480469 C 29.53125 -0.445312 26.582031 -1.921875 24.109375 -3.945312 C 27.199219 -6.789062 29.632812 -10.527344 31.074219 -15.226562 Z M 29.390625 -15.949219 "/></g></g></g></svg>